# Bullet: missile - humanoidrobotaddon sample (generated by tools/make_vehicles.py)

vt 0.031250 0.500000
vt 0.093750 0.500000
vt 0.156250 0.500000
vt 0.218750 0.500000
vt 0.281250 0.500000
vt 0.343750 0.500000
vt 0.406250 0.500000
vt 0.468750 0.500000
vn 1 0 0
vn -1 0 0
vn 0 1 0
vn 0 -1 0
vn 0 0 1
vn 0 0 -1

g body
v -0.080000 -0.080000 -0.400000
v 0.080000 -0.080000 -0.400000
v 0.080000 0.080000 -0.400000
v -0.080000 0.080000 -0.400000
v -0.080000 -0.080000 0.400000
v 0.080000 -0.080000 0.400000
v 0.080000 0.080000 0.400000
v -0.080000 0.080000 0.400000
f 1/2/6 4/2/6 3/2/6 2/2/6
f 5/2/5 6/2/5 7/2/5 8/2/5
f 1/2/4 2/2/4 6/2/4 5/2/4
f 2/2/1 3/2/1 7/2/1 6/2/1
f 3/2/3 4/2/3 8/2/3 7/2/3
f 4/2/2 1/2/2 5/2/2 8/2/2

v -0.055000 -0.055000 0.400000
v 0.055000 -0.055000 0.400000
v 0.055000 0.055000 0.400000
v -0.055000 0.055000 0.400000
v -0.055000 -0.055000 0.500000
v 0.055000 -0.055000 0.500000
v 0.055000 0.055000 0.500000
v -0.055000 0.055000 0.500000
f 9/4/6 12/4/6 11/4/6 10/4/6
f 13/4/5 14/4/5 15/4/5 16/4/5
f 9/4/4 10/4/4 14/4/4 13/4/4
f 10/4/1 11/4/1 15/4/1 14/4/1
f 11/4/3 12/4/3 16/4/3 15/4/3
f 12/4/2 9/4/2 13/4/2 16/4/2

v -0.230000 -0.020000 -0.390000
v 0.230000 -0.020000 -0.390000
v 0.230000 0.020000 -0.390000
v -0.230000 0.020000 -0.390000
v -0.230000 -0.020000 -0.250000
v 0.230000 -0.020000 -0.250000
v 0.230000 0.020000 -0.250000
v -0.230000 0.020000 -0.250000
f 17/3/6 20/3/6 19/3/6 18/3/6
f 21/3/5 22/3/5 23/3/5 24/3/5
f 17/3/4 18/3/4 22/3/4 21/3/4
f 18/3/1 19/3/1 23/3/1 22/3/1
f 19/3/3 20/3/3 24/3/3 23/3/3
f 20/3/2 17/3/2 21/3/2 24/3/2

v -0.020000 -0.230000 -0.390000
v 0.020000 -0.230000 -0.390000
v 0.020000 0.230000 -0.390000
v -0.020000 0.230000 -0.390000
v -0.020000 -0.230000 -0.250000
v 0.020000 -0.230000 -0.250000
v 0.020000 0.230000 -0.250000
v -0.020000 0.230000 -0.250000
f 25/3/6 28/3/6 27/3/6 26/3/6
f 29/3/5 30/3/5 31/3/5 32/3/5
f 25/3/4 26/3/4 30/3/4 29/3/4
f 26/3/1 27/3/1 31/3/1 30/3/1
f 27/3/3 28/3/3 32/3/3 31/3/3
f 28/3/2 25/3/2 29/3/2 32/3/2

v -0.050000 -0.050000 -0.450000
v 0.050000 -0.050000 -0.450000
v 0.050000 0.050000 -0.450000
v -0.050000 0.050000 -0.450000
v -0.050000 -0.050000 -0.410000
v 0.050000 -0.050000 -0.410000
v 0.050000 0.050000 -0.410000
v -0.050000 0.050000 -0.410000
f 33/5/6 36/5/6 35/5/6 34/5/6
f 37/5/5 38/5/5 39/5/5 40/5/5
f 33/5/4 34/5/4 38/5/4 37/5/4
f 34/5/1 35/5/1 39/5/1 38/5/1
f 35/5/3 36/5/3 40/5/3 39/5/3
f 36/5/2 33/5/2 37/5/2 40/5/2

