# Bullet: heavy shell - humanoidrobotaddon sample (generated by tools/make_vehicles.py)

vt 0.031250 0.500000
vt 0.093750 0.500000
vt 0.156250 0.500000
vt 0.218750 0.500000
vt 0.281250 0.500000
vt 0.343750 0.500000
vt 0.406250 0.500000
vt 0.468750 0.500000
vn 1 0 0
vn -1 0 0
vn 0 1 0
vn 0 -1 0
vn 0 0 1
vn 0 0 -1

g body
v -0.100000 -0.100000 -0.275000
v 0.100000 -0.100000 -0.275000
v 0.100000 0.100000 -0.275000
v -0.100000 0.100000 -0.275000
v -0.100000 -0.100000 0.275000
v 0.100000 -0.100000 0.275000
v 0.100000 0.100000 0.275000
v -0.100000 0.100000 0.275000
f 1/6/6 4/6/6 3/6/6 2/6/6
f 5/6/5 6/6/5 7/6/5 8/6/5
f 1/6/4 2/6/4 6/6/4 5/6/4
f 2/6/1 3/6/1 7/6/1 6/6/1
f 3/6/3 4/6/3 8/6/3 7/6/3
f 4/6/2 1/6/2 5/6/2 8/6/2

v -0.070000 -0.070000 0.270000
v 0.070000 -0.070000 0.270000
v 0.070000 0.070000 0.270000
v -0.070000 0.070000 0.270000
v -0.070000 -0.070000 0.370000
v 0.070000 -0.070000 0.370000
v 0.070000 0.070000 0.370000
v -0.070000 0.070000 0.370000
f 9/4/6 12/4/6 11/4/6 10/4/6
f 13/4/5 14/4/5 15/4/5 16/4/5
f 9/4/4 10/4/4 14/4/4 13/4/4
f 10/4/1 11/4/1 15/4/1 14/4/1
f 11/4/3 12/4/3 16/4/3 15/4/3
f 12/4/2 9/4/2 13/4/2 16/4/2

v -0.110000 -0.110000 -0.285000
v 0.110000 -0.110000 -0.285000
v 0.110000 0.110000 -0.285000
v -0.110000 0.110000 -0.285000
v -0.110000 -0.110000 -0.235000
v 0.110000 -0.110000 -0.235000
v 0.110000 0.110000 -0.235000
v -0.110000 0.110000 -0.235000
f 17/3/6 20/3/6 19/3/6 18/3/6
f 21/3/5 22/3/5 23/3/5 24/3/5
f 17/3/4 18/3/4 22/3/4 21/3/4
f 18/3/1 19/3/1 23/3/1 22/3/1
f 19/3/3 20/3/3 24/3/3 23/3/3
f 20/3/2 17/3/2 21/3/2 24/3/2

