# Spider Light Tank - humanoidrobotaddon sample (generated by tools/make_vehicles.py)

vt 0.031250 0.500000
vt 0.093750 0.500000
vt 0.156250 0.500000
vt 0.218750 0.500000
vt 0.281250 0.500000
vt 0.343750 0.500000
vt 0.406250 0.500000
vt 0.468750 0.500000
vn 1 0 0
vn -1 0 0
vn 0 1 0
vn 0 -1 0
vn 0 0 1
vn 0 0 -1

g body
v -1.000000 1.250000 -1.300000
v 1.000000 1.250000 -1.300000
v 1.000000 1.850000 -1.300000
v -1.000000 1.850000 -1.300000
v -1.000000 1.250000 1.300000
v 1.000000 1.250000 1.300000
v 1.000000 1.850000 1.300000
v -1.000000 1.850000 1.300000
f 1/1/6 4/1/6 3/1/6 2/1/6
f 5/1/5 6/1/5 7/1/5 8/1/5
f 1/1/4 2/1/4 6/1/4 5/1/4
f 2/1/1 3/1/1 7/1/1 6/1/1
f 3/1/3 4/1/3 8/1/3 7/1/3
f 4/1/2 1/1/2 5/1/2 8/1/2

v -0.700000 1.840000 -1.100000
v 0.700000 1.840000 -1.100000
v 0.700000 1.960000 -1.100000
v -0.700000 1.960000 -1.100000
v -0.700000 1.840000 -0.100000
v 0.700000 1.840000 -0.100000
v 0.700000 1.960000 -0.100000
v -0.700000 1.960000 -0.100000
f 9/2/6 12/2/6 11/2/6 10/2/6
f 13/2/5 14/2/5 15/2/5 16/2/5
f 9/2/4 10/2/4 14/2/4 13/2/4
f 10/2/1 11/2/1 15/2/1 14/2/1
f 11/2/3 12/2/3 16/2/3 15/2/3
f 12/2/2 9/2/2 13/2/2 16/2/2

v -0.600000 1.530000 1.290000
v 0.600000 1.530000 1.290000
v 0.600000 1.710000 1.290000
v -0.600000 1.710000 1.290000
v -0.600000 1.530000 1.330000
v 0.600000 1.530000 1.330000
v 0.600000 1.710000 1.330000
v -0.600000 1.710000 1.330000
f 17/5/6 20/5/6 19/5/6 18/5/6
f 21/5/5 22/5/5 23/5/5 24/5/5
f 17/5/4 18/5/4 22/5/4 21/5/4
f 18/5/1 19/5/1 23/5/1 22/5/1
f 19/5/3 20/5/3 24/5/3 23/5/3
f 20/5/2 17/5/2 21/5/2 24/5/2

g $leg_fr_upper
v 0.790000 1.340000 0.840000
v 1.210000 1.340000 0.840000
v 1.210000 1.760000 0.840000
v 0.790000 1.760000 0.840000
v 0.790000 1.340000 1.260000
v 1.210000 1.340000 1.260000
v 1.210000 1.760000 1.260000
v 0.790000 1.760000 1.260000
f 25/3/6 28/3/6 27/3/6 26/3/6
f 29/3/5 30/3/5 31/3/5 32/3/5
f 25/3/4 26/3/4 30/3/4 29/3/4
f 26/3/1 27/3/1 31/3/1 30/3/1
f 27/3/3 28/3/3 32/3/3 31/3/3
f 28/3/2 25/3/2 29/3/2 32/3/2

v 0.860000 1.485000 0.910000
v 1.890000 1.485000 0.910000
v 1.890000 1.765000 0.910000
v 0.860000 1.765000 0.910000
v 0.860000 1.485000 1.190000
v 1.890000 1.485000 1.190000
v 1.890000 1.765000 1.190000
v 0.860000 1.765000 1.190000
f 33/1/6 36/1/6 35/1/6 34/1/6
f 37/1/5 38/1/5 39/1/5 40/1/5
f 33/1/4 34/1/4 38/1/4 37/1/4
f 34/1/1 35/1/1 39/1/1 38/1/1
f 35/1/3 36/1/3 40/1/3 39/1/3
f 36/1/2 33/1/2 37/1/2 40/1/2

g $leg_fr_lower
v 1.568000 1.518000 0.868000
v 1.932000 1.518000 0.868000
v 1.932000 1.882000 0.868000
v 1.568000 1.882000 0.868000
v 1.568000 1.518000 1.232000
v 1.932000 1.518000 1.232000
v 1.932000 1.882000 1.232000
v 1.568000 1.882000 1.232000
f 41/3/6 44/3/6 43/3/6 42/3/6
f 45/3/5 46/3/5 47/3/5 48/3/5
f 41/3/4 42/3/4 46/3/4 45/3/4
f 42/3/1 43/3/1 47/3/1 46/3/1
f 43/3/3 44/3/3 48/3/3 47/3/3
f 44/3/2 41/3/2 45/3/2 48/3/2

v 1.731000 0.000000 0.931000
v 1.969000 0.000000 0.931000
v 1.969000 1.700000 0.931000
v 1.731000 1.700000 0.931000
v 1.731000 0.000000 1.169000
v 1.969000 0.000000 1.169000
v 1.969000 1.700000 1.169000
v 1.731000 1.700000 1.169000
f 49/2/6 52/2/6 51/2/6 50/2/6
f 53/2/5 54/2/5 55/2/5 56/2/5
f 49/2/4 50/2/4 54/2/4 53/2/4
f 50/2/1 51/2/1 55/2/1 54/2/1
f 51/2/3 52/2/3 56/2/3 55/2/3
f 52/2/2 49/2/2 53/2/2 56/2/2

v 1.626000 0.000000 0.826000
v 2.074000 0.000000 0.826000
v 2.074000 0.160000 0.826000
v 1.626000 0.160000 0.826000
v 1.626000 0.000000 1.274000
v 2.074000 0.000000 1.274000
v 2.074000 0.160000 1.274000
v 1.626000 0.160000 1.274000
f 57/8/6 60/8/6 59/8/6 58/8/6
f 61/8/5 62/8/5 63/8/5 64/8/5
f 57/8/4 58/8/4 62/8/4 61/8/4
f 58/8/1 59/8/1 63/8/1 62/8/1
f 59/8/3 60/8/3 64/8/3 63/8/3
f 60/8/2 57/8/2 61/8/2 64/8/2

g $leg_fl_upper
v -1.210000 1.340000 0.840000
v -0.790000 1.340000 0.840000
v -0.790000 1.760000 0.840000
v -1.210000 1.760000 0.840000
v -1.210000 1.340000 1.260000
v -0.790000 1.340000 1.260000
v -0.790000 1.760000 1.260000
v -1.210000 1.760000 1.260000
f 65/3/6 68/3/6 67/3/6 66/3/6
f 69/3/5 70/3/5 71/3/5 72/3/5
f 65/3/4 66/3/4 70/3/4 69/3/4
f 66/3/1 67/3/1 71/3/1 70/3/1
f 67/3/3 68/3/3 72/3/3 71/3/3
f 68/3/2 65/3/2 69/3/2 72/3/2

v -1.890000 1.485000 0.910000
v -0.860000 1.485000 0.910000
v -0.860000 1.765000 0.910000
v -1.890000 1.765000 0.910000
v -1.890000 1.485000 1.190000
v -0.860000 1.485000 1.190000
v -0.860000 1.765000 1.190000
v -1.890000 1.765000 1.190000
f 73/1/6 76/1/6 75/1/6 74/1/6
f 77/1/5 78/1/5 79/1/5 80/1/5
f 73/1/4 74/1/4 78/1/4 77/1/4
f 74/1/1 75/1/1 79/1/1 78/1/1
f 75/1/3 76/1/3 80/1/3 79/1/3
f 76/1/2 73/1/2 77/1/2 80/1/2

g $leg_fl_lower
v -1.932000 1.518000 0.868000
v -1.568000 1.518000 0.868000
v -1.568000 1.882000 0.868000
v -1.932000 1.882000 0.868000
v -1.932000 1.518000 1.232000
v -1.568000 1.518000 1.232000
v -1.568000 1.882000 1.232000
v -1.932000 1.882000 1.232000
f 81/3/6 84/3/6 83/3/6 82/3/6
f 85/3/5 86/3/5 87/3/5 88/3/5
f 81/3/4 82/3/4 86/3/4 85/3/4
f 82/3/1 83/3/1 87/3/1 86/3/1
f 83/3/3 84/3/3 88/3/3 87/3/3
f 84/3/2 81/3/2 85/3/2 88/3/2

v -1.969000 0.000000 0.931000
v -1.731000 0.000000 0.931000
v -1.731000 1.700000 0.931000
v -1.969000 1.700000 0.931000
v -1.969000 0.000000 1.169000
v -1.731000 0.000000 1.169000
v -1.731000 1.700000 1.169000
v -1.969000 1.700000 1.169000
f 89/2/6 92/2/6 91/2/6 90/2/6
f 93/2/5 94/2/5 95/2/5 96/2/5
f 89/2/4 90/2/4 94/2/4 93/2/4
f 90/2/1 91/2/1 95/2/1 94/2/1
f 91/2/3 92/2/3 96/2/3 95/2/3
f 92/2/2 89/2/2 93/2/2 96/2/2

v -2.074000 0.000000 0.826000
v -1.626000 0.000000 0.826000
v -1.626000 0.160000 0.826000
v -2.074000 0.160000 0.826000
v -2.074000 0.000000 1.274000
v -1.626000 0.000000 1.274000
v -1.626000 0.160000 1.274000
v -2.074000 0.160000 1.274000
f 97/8/6 100/8/6 99/8/6 98/8/6
f 101/8/5 102/8/5 103/8/5 104/8/5
f 97/8/4 98/8/4 102/8/4 101/8/4
f 98/8/1 99/8/1 103/8/1 102/8/1
f 99/8/3 100/8/3 104/8/3 103/8/3
f 100/8/2 97/8/2 101/8/2 104/8/2

g $leg_br_upper
v 0.790000 1.340000 -1.260000
v 1.210000 1.340000 -1.260000
v 1.210000 1.760000 -1.260000
v 0.790000 1.760000 -1.260000
v 0.790000 1.340000 -0.840000
v 1.210000 1.340000 -0.840000
v 1.210000 1.760000 -0.840000
v 0.790000 1.760000 -0.840000
f 105/3/6 108/3/6 107/3/6 106/3/6
f 109/3/5 110/3/5 111/3/5 112/3/5
f 105/3/4 106/3/4 110/3/4 109/3/4
f 106/3/1 107/3/1 111/3/1 110/3/1
f 107/3/3 108/3/3 112/3/3 111/3/3
f 108/3/2 105/3/2 109/3/2 112/3/2

v 0.860000 1.485000 -1.190000
v 1.890000 1.485000 -1.190000
v 1.890000 1.765000 -1.190000
v 0.860000 1.765000 -1.190000
v 0.860000 1.485000 -0.910000
v 1.890000 1.485000 -0.910000
v 1.890000 1.765000 -0.910000
v 0.860000 1.765000 -0.910000
f 113/1/6 116/1/6 115/1/6 114/1/6
f 117/1/5 118/1/5 119/1/5 120/1/5
f 113/1/4 114/1/4 118/1/4 117/1/4
f 114/1/1 115/1/1 119/1/1 118/1/1
f 115/1/3 116/1/3 120/1/3 119/1/3
f 116/1/2 113/1/2 117/1/2 120/1/2

g $leg_br_lower
v 1.568000 1.518000 -1.232000
v 1.932000 1.518000 -1.232000
v 1.932000 1.882000 -1.232000
v 1.568000 1.882000 -1.232000
v 1.568000 1.518000 -0.868000
v 1.932000 1.518000 -0.868000
v 1.932000 1.882000 -0.868000
v 1.568000 1.882000 -0.868000
f 121/3/6 124/3/6 123/3/6 122/3/6
f 125/3/5 126/3/5 127/3/5 128/3/5
f 121/3/4 122/3/4 126/3/4 125/3/4
f 122/3/1 123/3/1 127/3/1 126/3/1
f 123/3/3 124/3/3 128/3/3 127/3/3
f 124/3/2 121/3/2 125/3/2 128/3/2

v 1.731000 0.000000 -1.169000
v 1.969000 0.000000 -1.169000
v 1.969000 1.700000 -1.169000
v 1.731000 1.700000 -1.169000
v 1.731000 0.000000 -0.931000
v 1.969000 0.000000 -0.931000
v 1.969000 1.700000 -0.931000
v 1.731000 1.700000 -0.931000
f 129/2/6 132/2/6 131/2/6 130/2/6
f 133/2/5 134/2/5 135/2/5 136/2/5
f 129/2/4 130/2/4 134/2/4 133/2/4
f 130/2/1 131/2/1 135/2/1 134/2/1
f 131/2/3 132/2/3 136/2/3 135/2/3
f 132/2/2 129/2/2 133/2/2 136/2/2

v 1.626000 0.000000 -1.274000
v 2.074000 0.000000 -1.274000
v 2.074000 0.160000 -1.274000
v 1.626000 0.160000 -1.274000
v 1.626000 0.000000 -0.826000
v 2.074000 0.000000 -0.826000
v 2.074000 0.160000 -0.826000
v 1.626000 0.160000 -0.826000
f 137/8/6 140/8/6 139/8/6 138/8/6
f 141/8/5 142/8/5 143/8/5 144/8/5
f 137/8/4 138/8/4 142/8/4 141/8/4
f 138/8/1 139/8/1 143/8/1 142/8/1
f 139/8/3 140/8/3 144/8/3 143/8/3
f 140/8/2 137/8/2 141/8/2 144/8/2

g $leg_bl_upper
v -1.210000 1.340000 -1.260000
v -0.790000 1.340000 -1.260000
v -0.790000 1.760000 -1.260000
v -1.210000 1.760000 -1.260000
v -1.210000 1.340000 -0.840000
v -0.790000 1.340000 -0.840000
v -0.790000 1.760000 -0.840000
v -1.210000 1.760000 -0.840000
f 145/3/6 148/3/6 147/3/6 146/3/6
f 149/3/5 150/3/5 151/3/5 152/3/5
f 145/3/4 146/3/4 150/3/4 149/3/4
f 146/3/1 147/3/1 151/3/1 150/3/1
f 147/3/3 148/3/3 152/3/3 151/3/3
f 148/3/2 145/3/2 149/3/2 152/3/2

v -1.890000 1.485000 -1.190000
v -0.860000 1.485000 -1.190000
v -0.860000 1.765000 -1.190000
v -1.890000 1.765000 -1.190000
v -1.890000 1.485000 -0.910000
v -0.860000 1.485000 -0.910000
v -0.860000 1.765000 -0.910000
v -1.890000 1.765000 -0.910000
f 153/1/6 156/1/6 155/1/6 154/1/6
f 157/1/5 158/1/5 159/1/5 160/1/5
f 153/1/4 154/1/4 158/1/4 157/1/4
f 154/1/1 155/1/1 159/1/1 158/1/1
f 155/1/3 156/1/3 160/1/3 159/1/3
f 156/1/2 153/1/2 157/1/2 160/1/2

g $leg_bl_lower
v -1.932000 1.518000 -1.232000
v -1.568000 1.518000 -1.232000
v -1.568000 1.882000 -1.232000
v -1.932000 1.882000 -1.232000
v -1.932000 1.518000 -0.868000
v -1.568000 1.518000 -0.868000
v -1.568000 1.882000 -0.868000
v -1.932000 1.882000 -0.868000
f 161/3/6 164/3/6 163/3/6 162/3/6
f 165/3/5 166/3/5 167/3/5 168/3/5
f 161/3/4 162/3/4 166/3/4 165/3/4
f 162/3/1 163/3/1 167/3/1 166/3/1
f 163/3/3 164/3/3 168/3/3 167/3/3
f 164/3/2 161/3/2 165/3/2 168/3/2

v -1.969000 0.000000 -1.169000
v -1.731000 0.000000 -1.169000
v -1.731000 1.700000 -1.169000
v -1.969000 1.700000 -1.169000
v -1.969000 0.000000 -0.931000
v -1.731000 0.000000 -0.931000
v -1.731000 1.700000 -0.931000
v -1.969000 1.700000 -0.931000
f 169/2/6 172/2/6 171/2/6 170/2/6
f 173/2/5 174/2/5 175/2/5 176/2/5
f 169/2/4 170/2/4 174/2/4 173/2/4
f 170/2/1 171/2/1 175/2/1 174/2/1
f 171/2/3 172/2/3 176/2/3 175/2/3
f 172/2/2 169/2/2 173/2/2 176/2/2

v -2.074000 0.000000 -1.274000
v -1.626000 0.000000 -1.274000
v -1.626000 0.160000 -1.274000
v -2.074000 0.160000 -1.274000
v -2.074000 0.000000 -0.826000
v -1.626000 0.000000 -0.826000
v -1.626000 0.160000 -0.826000
v -2.074000 0.160000 -0.826000
f 177/8/6 180/8/6 179/8/6 178/8/6
f 181/8/5 182/8/5 183/8/5 184/8/5
f 177/8/4 178/8/4 182/8/4 181/8/4
f 178/8/1 179/8/1 183/8/1 182/8/1
f 179/8/3 180/8/3 184/8/3 183/8/3
f 180/8/2 177/8/2 181/8/2 184/8/2

g $turret
v -0.600000 1.850000 -0.750000
v 0.600000 1.850000 -0.750000
v 0.600000 2.350000 -0.750000
v -0.600000 2.350000 -0.750000
v -0.600000 1.850000 0.550000
v 0.600000 1.850000 0.550000
v 0.600000 2.350000 0.550000
v -0.600000 2.350000 0.550000
f 185/1/6 188/1/6 187/1/6 186/1/6
f 189/1/5 190/1/5 191/1/5 192/1/5
f 185/1/4 186/1/4 190/1/4 189/1/4
f 186/1/1 187/1/1 191/1/1 190/1/1
f 187/1/3 188/1/3 192/1/3 191/1/3
f 188/1/2 185/1/2 189/1/2 192/1/2

v -0.250000 2.330000 -0.550000
v 0.250000 2.330000 -0.550000
v 0.250000 2.430000 -0.550000
v -0.250000 2.430000 -0.550000
v -0.250000 2.330000 -0.050000
v 0.250000 2.330000 -0.050000
v 0.250000 2.430000 -0.050000
v -0.250000 2.430000 -0.050000
f 193/2/6 196/2/6 195/2/6 194/2/6
f 197/2/5 198/2/5 199/2/5 200/2/5
f 193/2/4 194/2/4 198/2/4 197/2/4
f 194/2/1 195/2/1 199/2/1 198/2/1
f 195/2/3 196/2/3 200/2/3 199/2/3
f 196/2/2 193/2/2 197/2/2 200/2/2

g $cannon
v -0.200000 1.980000 0.500000
v 0.200000 1.980000 0.500000
v 0.200000 2.320000 0.500000
v -0.200000 2.320000 0.500000
v -0.200000 1.980000 0.740000
v 0.200000 1.980000 0.740000
v 0.200000 2.320000 0.740000
v -0.200000 2.320000 0.740000
f 201/3/6 204/3/6 203/3/6 202/3/6
f 205/3/5 206/3/5 207/3/5 208/3/5
f 201/3/4 202/3/4 206/3/4 205/3/4
f 202/3/1 203/3/1 207/3/1 206/3/1
f 203/3/3 204/3/3 208/3/3 207/3/3
f 204/3/2 201/3/2 205/3/2 208/3/2

v -0.090000 2.060000 0.600000
v 0.090000 2.060000 0.600000
v 0.090000 2.240000 0.600000
v -0.090000 2.240000 0.600000
v -0.090000 2.060000 2.200000
v 0.090000 2.060000 2.200000
v 0.090000 2.240000 2.200000
v -0.090000 2.240000 2.200000
f 209/6/6 212/6/6 211/6/6 210/6/6
f 213/6/5 214/6/5 215/6/5 216/6/5
f 209/6/4 210/6/4 214/6/4 213/6/4
f 210/6/1 211/6/1 215/6/1 214/6/1
f 211/6/3 212/6/3 216/6/3 215/6/3
f 212/6/2 209/6/2 213/6/2 216/6/2

