# Transformer Jet - humanoidrobotaddon sample (generated by tools/make_vehicles.py)

vt 0.031250 0.500000
vt 0.093750 0.500000
vt 0.156250 0.500000
vt 0.218750 0.500000
vt 0.281250 0.500000
vt 0.343750 0.500000
vt 0.406250 0.500000
vt 0.468750 0.500000
vn 1 0 0
vn -1 0 0
vn 0 1 0
vn 0 -1 0
vn 0 0 1
vn 0 0 -1

g body
v -0.650000 1.900000 -0.400000
v 0.650000 1.900000 -0.400000
v 0.650000 3.200000 -0.400000
v -0.650000 3.200000 -0.400000
v -0.650000 1.900000 0.400000
v 0.650000 1.900000 0.400000
v 0.650000 3.200000 0.400000
v -0.650000 3.200000 0.400000
f 1/1/6 4/1/6 3/1/6 2/1/6
f 5/1/5 6/1/5 7/1/5 8/1/5
f 1/1/4 2/1/4 6/1/4 5/1/4
f 2/1/1 3/1/1 7/1/1 6/1/1
f 3/1/3 4/1/3 8/1/3 7/1/3
f 4/1/2 1/1/2 5/1/2 8/1/2

v -0.450000 2.300000 0.390000
v 0.450000 2.300000 0.390000
v 0.450000 3.000000 0.390000
v -0.450000 3.000000 0.390000
v -0.450000 2.300000 0.430000
v 0.450000 2.300000 0.430000
v 0.450000 3.000000 0.430000
v -0.450000 3.000000 0.430000
f 9/2/6 12/2/6 11/2/6 10/2/6
f 13/2/5 14/2/5 15/2/5 16/2/5
f 9/2/4 10/2/4 14/2/4 13/2/4
f 10/2/1 11/2/1 15/2/1 14/2/1
f 11/2/3 12/2/3 16/2/3 15/2/3
f 12/2/2 9/2/2 13/2/2 16/2/2

g $head
v -0.300000 3.200000 -0.300000
v 0.300000 3.200000 -0.300000
v 0.300000 3.700000 -0.300000
v -0.300000 3.700000 -0.300000
v -0.300000 3.200000 0.300000
v 0.300000 3.200000 0.300000
v 0.300000 3.700000 0.300000
v -0.300000 3.700000 0.300000
f 17/1/6 20/1/6 19/1/6 18/1/6
f 21/1/5 22/1/5 23/1/5 24/1/5
f 17/1/4 18/1/4 22/1/4 21/1/4
f 18/1/1 19/1/1 23/1/1 22/1/1
f 19/1/3 20/1/3 24/1/3 23/1/3
f 20/1/2 17/1/2 21/1/2 24/1/2

v -0.225000 3.400000 0.290000
v 0.225000 3.400000 0.290000
v 0.225000 3.540000 0.290000
v -0.225000 3.540000 0.290000
v -0.225000 3.400000 0.330000
v 0.225000 3.400000 0.330000
v 0.225000 3.540000 0.330000
v -0.225000 3.540000 0.330000
f 25/5/6 28/5/6 27/5/6 26/5/6
f 29/5/5 30/5/5 31/5/5 32/5/5
f 25/5/4 26/5/4 30/5/4 29/5/4
f 26/5/1 27/5/1 31/5/1 30/5/1
f 27/5/3 28/5/3 32/5/3 31/5/3
f 28/5/2 25/5/2 29/5/2 32/5/2

g $arm_r
v 0.950000 2.650000 -0.200000
v 1.350000 2.650000 -0.200000
v 1.350000 3.050000 -0.200000
v 0.950000 3.050000 -0.200000
v 0.950000 2.650000 0.200000
v 1.350000 2.650000 0.200000
v 1.350000 3.050000 0.200000
v 0.950000 3.050000 0.200000
f 33/3/6 36/3/6 35/3/6 34/3/6
f 37/3/5 38/3/5 39/3/5 40/3/5
f 33/3/4 34/3/4 38/3/4 37/3/4
f 34/3/1 35/3/1 39/3/1 38/3/1
f 35/3/3 36/3/3 40/3/3 39/3/3
f 36/3/2 33/3/2 37/3/2 40/3/2

v 0.970000 2.200000 -0.180000
v 1.330000 2.200000 -0.180000
v 1.330000 2.800000 -0.180000
v 0.970000 2.800000 -0.180000
v 0.970000 2.200000 0.180000
v 1.330000 2.200000 0.180000
v 1.330000 2.800000 0.180000
v 0.970000 2.800000 0.180000
f 41/1/6 44/1/6 43/1/6 42/1/6
f 45/1/5 46/1/5 47/1/5 48/1/5
f 41/1/4 42/1/4 46/1/4 45/1/4
f 42/1/1 43/1/1 47/1/1 46/1/1
f 43/1/3 44/1/3 48/1/3 47/1/3
f 44/1/2 41/1/2 45/1/2 48/1/2

g $forearm_r
v 0.960000 2.150000 -0.190000
v 1.340000 2.150000 -0.190000
v 1.340000 2.450000 -0.190000
v 0.960000 2.450000 -0.190000
v 0.960000 2.150000 0.190000
v 1.340000 2.150000 0.190000
v 1.340000 2.450000 0.190000
v 0.960000 2.450000 0.190000
f 49/3/6 52/3/6 51/3/6 50/3/6
f 53/3/5 54/3/5 55/3/5 56/3/5
f 49/3/4 50/3/4 54/3/4 53/3/4
f 50/3/1 51/3/1 55/3/1 54/3/1
f 51/3/3 52/3/3 56/3/3 55/3/3
f 52/3/2 49/3/2 53/3/2 56/3/2

v 0.980000 2.130000 -0.100000
v 1.320000 2.130000 -0.100000
v 1.320000 2.470000 -0.100000
v 0.980000 2.470000 -0.100000
v 0.980000 2.130000 0.800000
v 1.320000 2.130000 0.800000
v 1.320000 2.470000 0.800000
v 0.980000 2.470000 0.800000
f 57/1/6 60/1/6 59/1/6 58/1/6
f 61/1/5 62/1/5 63/1/5 64/1/5
f 57/1/4 58/1/4 62/1/4 61/1/4
f 58/1/1 59/1/1 63/1/1 62/1/1
f 59/1/3 60/1/3 64/1/3 63/1/3
f 60/1/2 57/1/2 61/1/2 64/1/2

v 1.060000 2.190000 0.250000
v 1.240000 2.190000 0.250000
v 1.240000 2.410000 0.250000
v 1.060000 2.410000 0.250000
v 1.060000 2.190000 1.350000
v 1.240000 2.190000 1.350000
v 1.240000 2.410000 1.350000
v 1.060000 2.410000 1.350000
f 65/6/6 68/6/6 67/6/6 66/6/6
f 69/6/5 70/6/5 71/6/5 72/6/5
f 65/6/4 66/6/4 70/6/4 69/6/4
f 66/6/1 67/6/1 71/6/1 70/6/1
f 67/6/3 68/6/3 72/6/3 71/6/3
f 68/6/2 65/6/2 69/6/2 72/6/2

v 1.100000 2.250000 1.150000
v 1.200000 2.250000 1.150000
v 1.200000 2.350000 1.150000
v 1.100000 2.350000 1.150000
v 1.100000 2.250000 1.450000
v 1.200000 2.250000 1.450000
v 1.200000 2.350000 1.450000
v 1.100000 2.350000 1.450000
f 73/6/6 76/6/6 75/6/6 74/6/6
f 77/6/5 78/6/5 79/6/5 80/6/5
f 73/6/4 74/6/4 78/6/4 77/6/4
f 74/6/1 75/6/1 79/6/1 78/6/1
f 75/6/3 76/6/3 80/6/3 79/6/3
f 76/6/2 73/6/2 77/6/2 80/6/2

g $upperarm_l
v -1.350000 2.650000 -0.200000
v -0.950000 2.650000 -0.200000
v -0.950000 3.050000 -0.200000
v -1.350000 3.050000 -0.200000
v -1.350000 2.650000 0.200000
v -0.950000 2.650000 0.200000
v -0.950000 3.050000 0.200000
v -1.350000 3.050000 0.200000
f 81/3/6 84/3/6 83/3/6 82/3/6
f 85/3/5 86/3/5 87/3/5 88/3/5
f 81/3/4 82/3/4 86/3/4 85/3/4
f 82/3/1 83/3/1 87/3/1 86/3/1
f 83/3/3 84/3/3 88/3/3 87/3/3
f 84/3/2 81/3/2 85/3/2 88/3/2

v -1.330000 2.200000 -0.180000
v -0.970000 2.200000 -0.180000
v -0.970000 2.840000 -0.180000
v -1.330000 2.840000 -0.180000
v -1.330000 2.200000 0.180000
v -0.970000 2.200000 0.180000
v -0.970000 2.840000 0.180000
v -1.330000 2.840000 0.180000
f 89/1/6 92/1/6 91/1/6 90/1/6
f 93/1/5 94/1/5 95/1/5 96/1/5
f 89/1/4 90/1/4 94/1/4 93/1/4
f 90/1/1 91/1/1 95/1/1 94/1/1
f 91/1/3 92/1/3 96/1/3 95/1/3
f 92/1/2 89/1/2 93/1/2 96/1/2

g $forearm_l
v -1.320000 2.090000 -0.170000
v -0.980000 2.090000 -0.170000
v -0.980000 2.310000 -0.170000
v -1.320000 2.310000 -0.170000
v -1.320000 2.090000 0.170000
v -0.980000 2.090000 0.170000
v -0.980000 2.310000 0.170000
v -1.320000 2.310000 0.170000
f 97/3/6 100/3/6 99/3/6 98/3/6
f 101/3/5 102/3/5 103/3/5 104/3/5
f 97/3/4 98/3/4 102/3/4 101/3/4
f 98/3/1 99/3/1 103/3/1 102/3/1
f 99/3/3 100/3/3 104/3/3 103/3/3
f 100/3/2 97/3/2 101/3/2 104/3/2

v -1.320000 1.650000 -0.170000
v -0.980000 1.650000 -0.170000
v -0.980000 2.150000 -0.170000
v -1.320000 2.150000 -0.170000
v -1.320000 1.650000 0.170000
v -0.980000 1.650000 0.170000
v -0.980000 2.150000 0.170000
v -1.320000 2.150000 0.170000
f 105/1/6 108/1/6 107/1/6 106/1/6
f 109/1/5 110/1/5 111/1/5 112/1/5
f 105/1/4 106/1/4 110/1/4 109/1/4
f 106/1/1 107/1/1 111/1/1 110/1/1
f 107/1/3 108/1/3 112/1/3 111/1/3
f 108/1/2 105/1/2 109/1/2 112/1/2

v -1.300000 1.480000 -0.150000
v -1.000000 1.480000 -0.150000
v -1.000000 1.680000 -0.150000
v -1.300000 1.680000 -0.150000
v -1.300000 1.480000 0.150000
v -1.000000 1.480000 0.150000
v -1.000000 1.680000 0.150000
v -1.300000 1.680000 0.150000
f 113/3/6 116/3/6 115/3/6 114/3/6
f 117/3/5 118/3/5 119/3/5 120/3/5
f 113/3/4 114/3/4 118/3/4 117/3/4
f 114/3/1 115/3/1 119/3/1 118/3/1
f 115/3/3 116/3/3 120/3/3 119/3/3
f 116/3/2 113/3/2 117/3/2 120/3/2

g $shoulder_pod_l
v 0.675000 3.120000 -0.400000
v 1.225000 3.120000 -0.400000
v 1.225000 3.520000 -0.400000
v 0.675000 3.520000 -0.400000
v 0.675000 3.120000 0.500000
v 1.225000 3.120000 0.500000
v 1.225000 3.520000 0.500000
v 0.675000 3.520000 0.500000
f 121/7/6 124/7/6 123/7/6 122/7/6
f 125/7/5 126/7/5 127/7/5 128/7/5
f 121/7/4 122/7/4 126/7/4 125/7/4
f 122/7/1 123/7/1 127/7/1 126/7/1
f 123/7/3 124/7/3 128/7/3 127/7/3
f 124/7/2 121/7/2 125/7/2 128/7/2

v 0.725000 3.170000 0.490000
v 1.175000 3.170000 0.490000
v 1.175000 3.470000 0.490000
v 0.725000 3.470000 0.490000
v 0.725000 3.170000 0.530000
v 1.175000 3.170000 0.530000
v 1.175000 3.470000 0.530000
v 0.725000 3.470000 0.530000
f 129/4/6 132/4/6 131/4/6 130/4/6
f 133/4/5 134/4/5 135/4/5 136/4/5
f 129/4/4 130/4/4 134/4/4 133/4/4
f 130/4/1 131/4/1 135/4/1 134/4/1
f 131/4/3 132/4/3 136/4/3 135/4/3
f 132/4/2 129/4/2 133/4/2 136/4/2

v 0.760000 3.380000 0.510000
v 0.840000 3.380000 0.510000
v 0.840000 3.460000 0.510000
v 0.760000 3.460000 0.510000
v 0.760000 3.380000 0.530000
v 0.840000 3.380000 0.530000
v 0.840000 3.460000 0.530000
v 0.760000 3.460000 0.530000
f 137/3/6 140/3/6 139/3/6 138/3/6
f 141/3/5 142/3/5 143/3/5 144/3/5
f 137/3/4 138/3/4 142/3/4 141/3/4
f 138/3/1 139/3/1 143/3/1 142/3/1
f 139/3/3 140/3/3 144/3/3 143/3/3
f 140/3/2 137/3/2 141/3/2 144/3/2

v 0.910000 3.380000 0.510000
v 0.990000 3.380000 0.510000
v 0.990000 3.460000 0.510000
v 0.910000 3.460000 0.510000
v 0.910000 3.380000 0.530000
v 0.990000 3.380000 0.530000
v 0.990000 3.460000 0.530000
v 0.910000 3.460000 0.530000
f 145/3/6 148/3/6 147/3/6 146/3/6
f 149/3/5 150/3/5 151/3/5 152/3/5
f 145/3/4 146/3/4 150/3/4 149/3/4
f 146/3/1 147/3/1 151/3/1 150/3/1
f 147/3/3 148/3/3 152/3/3 151/3/3
f 148/3/2 145/3/2 149/3/2 152/3/2

v 1.060000 3.380000 0.510000
v 1.140000 3.380000 0.510000
v 1.140000 3.460000 0.510000
v 1.060000 3.460000 0.510000
v 1.060000 3.380000 0.530000
v 1.140000 3.380000 0.530000
v 1.140000 3.460000 0.530000
v 1.060000 3.460000 0.530000
f 153/3/6 156/3/6 155/3/6 154/3/6
f 157/3/5 158/3/5 159/3/5 160/3/5
f 153/3/4 154/3/4 158/3/4 157/3/4
f 154/3/1 155/3/1 159/3/1 158/3/1
f 155/3/3 156/3/3 160/3/3 159/3/3
f 156/3/2 153/3/2 157/3/2 160/3/2

g body
v -0.350000 1.600000 -0.250000
v 0.350000 1.600000 -0.250000
v 0.350000 2.000000 -0.250000
v -0.350000 2.000000 -0.250000
v -0.350000 1.600000 0.250000
v 0.350000 1.600000 0.250000
v 0.350000 2.000000 0.250000
v -0.350000 2.000000 0.250000
f 161/3/6 164/3/6 163/3/6 162/3/6
f 165/3/5 166/3/5 167/3/5 168/3/5
f 161/3/4 162/3/4 166/3/4 165/3/4
f 162/3/1 163/3/1 167/3/1 166/3/1
f 163/3/3 164/3/3 168/3/3 167/3/3
f 164/3/2 161/3/2 165/3/2 168/3/2

g $thigh_r
v 0.250000 1.750000 -0.250000
v 0.750000 1.750000 -0.250000
v 0.750000 2.050000 -0.250000
v 0.250000 2.050000 -0.250000
v 0.250000 1.750000 0.250000
v 0.750000 1.750000 0.250000
v 0.750000 2.050000 0.250000
v 0.250000 2.050000 0.250000
f 169/3/6 172/3/6 171/3/6 170/3/6
f 173/3/5 174/3/5 175/3/5 176/3/5
f 169/3/4 170/3/4 174/3/4 173/3/4
f 170/3/1 171/3/1 175/3/1 174/3/1
f 171/3/3 172/3/3 176/3/3 175/3/3
f 172/3/2 169/3/2 173/3/2 176/3/2

v 0.280000 0.700000 -0.280000
v 0.720000 0.700000 -0.280000
v 0.720000 1.800000 -0.280000
v 0.280000 1.800000 -0.280000
v 0.280000 0.700000 0.280000
v 0.720000 0.700000 0.280000
v 0.720000 1.800000 0.280000
v 0.280000 1.800000 0.280000
f 177/1/6 180/1/6 179/1/6 178/1/6
f 181/1/5 182/1/5 183/1/5 184/1/5
f 177/1/4 178/1/4 182/1/4 181/1/4
f 178/1/1 179/1/1 183/1/1 182/1/1
f 179/1/3 180/1/3 184/1/3 183/1/3
f 180/1/2 177/1/2 181/1/2 184/1/2

g $shin_r
v 0.300000 0.560000 -0.180000
v 0.700000 0.560000 -0.180000
v 0.700000 0.800000 -0.180000
v 0.300000 0.800000 -0.180000
v 0.300000 0.560000 0.220000
v 0.700000 0.560000 0.220000
v 0.700000 0.800000 0.220000
v 0.300000 0.800000 0.220000
f 185/3/6 188/3/6 187/3/6 186/3/6
f 189/3/5 190/3/5 191/3/5 192/3/5
f 185/3/4 186/3/4 190/3/4 189/3/4
f 186/3/1 187/3/1 191/3/1 190/3/1
f 187/3/3 188/3/3 192/3/3 191/3/3
f 188/3/2 185/3/2 189/3/2 192/3/2

v 0.290000 0.170000 -0.250000
v 0.710000 0.170000 -0.250000
v 0.710000 0.670000 -0.250000
v 0.290000 0.670000 -0.250000
v 0.290000 0.170000 0.250000
v 0.710000 0.170000 0.250000
v 0.710000 0.670000 0.250000
v 0.290000 0.670000 0.250000
f 193/2/6 196/2/6 195/2/6 194/2/6
f 197/2/5 198/2/5 199/2/5 200/2/5
f 193/2/4 194/2/4 198/2/4 197/2/4
f 194/2/1 195/2/1 199/2/1 198/2/1
f 195/2/3 196/2/3 200/2/3 199/2/3
f 196/2/2 193/2/2 197/2/2 200/2/2

g $foot_r
v 0.240000 0.000000 -0.300000
v 0.760000 0.000000 -0.300000
v 0.760000 0.200000 -0.300000
v 0.240000 0.200000 -0.300000
v 0.240000 0.000000 0.600000
v 0.760000 0.000000 0.600000
v 0.760000 0.200000 0.600000
v 0.240000 0.200000 0.600000
f 201/8/6 204/8/6 203/8/6 202/8/6
f 205/8/5 206/8/5 207/8/5 208/8/5
f 201/8/4 202/8/4 206/8/4 205/8/4
f 202/8/1 203/8/1 207/8/1 206/8/1
f 203/8/3 204/8/3 208/8/3 207/8/3
f 204/8/2 201/8/2 205/8/2 208/8/2

v 0.350000 0.030000 -0.350000
v 0.650000 0.030000 -0.350000
v 0.650000 0.170000 -0.350000
v 0.350000 0.170000 -0.350000
v 0.350000 0.030000 -0.290000
v 0.650000 0.030000 -0.290000
v 0.650000 0.170000 -0.290000
v 0.350000 0.170000 -0.290000
f 209/4/6 212/4/6 211/4/6 210/4/6
f 213/4/5 214/4/5 215/4/5 216/4/5
f 209/4/4 210/4/4 214/4/4 213/4/4
f 210/4/1 211/4/1 215/4/1 214/4/1
f 211/4/3 212/4/3 216/4/3 215/4/3
f 212/4/2 209/4/2 213/4/2 216/4/2

g $thigh_l
v -0.750000 1.750000 -0.250000
v -0.250000 1.750000 -0.250000
v -0.250000 2.050000 -0.250000
v -0.750000 2.050000 -0.250000
v -0.750000 1.750000 0.250000
v -0.250000 1.750000 0.250000
v -0.250000 2.050000 0.250000
v -0.750000 2.050000 0.250000
f 217/3/6 220/3/6 219/3/6 218/3/6
f 221/3/5 222/3/5 223/3/5 224/3/5
f 217/3/4 218/3/4 222/3/4 221/3/4
f 218/3/1 219/3/1 223/3/1 222/3/1
f 219/3/3 220/3/3 224/3/3 223/3/3
f 220/3/2 217/3/2 221/3/2 224/3/2

v -0.720000 0.700000 -0.280000
v -0.280000 0.700000 -0.280000
v -0.280000 1.800000 -0.280000
v -0.720000 1.800000 -0.280000
v -0.720000 0.700000 0.280000
v -0.280000 0.700000 0.280000
v -0.280000 1.800000 0.280000
v -0.720000 1.800000 0.280000
f 225/1/6 228/1/6 227/1/6 226/1/6
f 229/1/5 230/1/5 231/1/5 232/1/5
f 225/1/4 226/1/4 230/1/4 229/1/4
f 226/1/1 227/1/1 231/1/1 230/1/1
f 227/1/3 228/1/3 232/1/3 231/1/3
f 228/1/2 225/1/2 229/1/2 232/1/2

g $shin_l
v -0.700000 0.560000 -0.180000
v -0.300000 0.560000 -0.180000
v -0.300000 0.800000 -0.180000
v -0.700000 0.800000 -0.180000
v -0.700000 0.560000 0.220000
v -0.300000 0.560000 0.220000
v -0.300000 0.800000 0.220000
v -0.700000 0.800000 0.220000
f 233/3/6 236/3/6 235/3/6 234/3/6
f 237/3/5 238/3/5 239/3/5 240/3/5
f 233/3/4 234/3/4 238/3/4 237/3/4
f 234/3/1 235/3/1 239/3/1 238/3/1
f 235/3/3 236/3/3 240/3/3 239/3/3
f 236/3/2 233/3/2 237/3/2 240/3/2

v -0.710000 0.170000 -0.250000
v -0.290000 0.170000 -0.250000
v -0.290000 0.670000 -0.250000
v -0.710000 0.670000 -0.250000
v -0.710000 0.170000 0.250000
v -0.290000 0.170000 0.250000
v -0.290000 0.670000 0.250000
v -0.710000 0.670000 0.250000
f 241/2/6 244/2/6 243/2/6 242/2/6
f 245/2/5 246/2/5 247/2/5 248/2/5
f 241/2/4 242/2/4 246/2/4 245/2/4
f 242/2/1 243/2/1 247/2/1 246/2/1
f 243/2/3 244/2/3 248/2/3 247/2/3
f 244/2/2 241/2/2 245/2/2 248/2/2

g $foot_l
v -0.760000 0.000000 -0.300000
v -0.240000 0.000000 -0.300000
v -0.240000 0.200000 -0.300000
v -0.760000 0.200000 -0.300000
v -0.760000 0.000000 0.600000
v -0.240000 0.000000 0.600000
v -0.240000 0.200000 0.600000
v -0.760000 0.200000 0.600000
f 249/8/6 252/8/6 251/8/6 250/8/6
f 253/8/5 254/8/5 255/8/5 256/8/5
f 249/8/4 250/8/4 254/8/4 253/8/4
f 250/8/1 251/8/1 255/8/1 254/8/1
f 251/8/3 252/8/3 256/8/3 255/8/3
f 252/8/2 249/8/2 253/8/2 256/8/2

v -0.650000 0.030000 -0.350000
v -0.350000 0.030000 -0.350000
v -0.350000 0.170000 -0.350000
v -0.650000 0.170000 -0.350000
v -0.650000 0.030000 -0.290000
v -0.350000 0.030000 -0.290000
v -0.350000 0.170000 -0.290000
v -0.650000 0.170000 -0.290000
f 257/4/6 260/4/6 259/4/6 258/4/6
f 261/4/5 262/4/5 263/4/5 264/4/5
f 257/4/4 258/4/4 262/4/4 261/4/4
f 258/4/1 259/4/1 263/4/1 262/4/1
f 259/4/3 260/4/3 264/4/3 263/4/3
f 260/4/2 257/4/2 261/4/2 264/4/2

g $wing_l
v 0.050000 1.600000 -0.470000
v 0.550000 1.600000 -0.470000
v 0.550000 3.000000 -0.470000
v 0.050000 3.000000 -0.470000
v 0.050000 1.600000 -0.410000
v 0.550000 1.600000 -0.410000
v 0.550000 3.000000 -0.410000
v 0.050000 3.000000 -0.410000
f 265/2/6 268/2/6 267/2/6 266/2/6
f 269/2/5 270/2/5 271/2/5 272/2/5
f 265/2/4 266/2/4 270/2/4 269/2/4
f 266/2/1 267/2/1 271/2/1 270/2/1
f 267/2/3 268/2/3 272/2/3 271/2/3
f 268/2/2 265/2/2 269/2/2 272/2/2

v 0.050000 1.580000 -0.475000
v 0.550000 1.580000 -0.475000
v 0.550000 1.660000 -0.475000
v 0.050000 1.660000 -0.475000
v 0.050000 1.580000 -0.405000
v 0.550000 1.580000 -0.405000
v 0.550000 1.660000 -0.405000
v 0.050000 1.660000 -0.405000
f 273/4/6 276/4/6 275/4/6 274/4/6
f 277/4/5 278/4/5 279/4/5 280/4/5
f 273/4/4 274/4/4 278/4/4 277/4/4
f 274/4/1 275/4/1 279/4/1 278/4/1
f 275/4/3 276/4/3 280/4/3 279/4/3
f 276/4/2 273/4/2 277/4/2 280/4/2

v 0.230000 2.930000 -0.500000
v 0.370000 2.930000 -0.500000
v 0.370000 3.070000 -0.500000
v 0.230000 3.070000 -0.500000
v 0.230000 2.930000 -0.380000
v 0.370000 2.930000 -0.380000
v 0.370000 3.070000 -0.380000
v 0.230000 3.070000 -0.380000
f 281/3/6 284/3/6 283/3/6 282/3/6
f 285/3/5 286/3/5 287/3/5 288/3/5
f 281/3/4 282/3/4 286/3/4 285/3/4
f 282/3/1 283/3/1 287/3/1 286/3/1
f 283/3/3 284/3/3 288/3/3 287/3/3
f 284/3/2 281/3/2 285/3/2 288/3/2

g $wing_r
v -0.550000 1.600000 -0.470000
v -0.050000 1.600000 -0.470000
v -0.050000 3.000000 -0.470000
v -0.550000 3.000000 -0.470000
v -0.550000 1.600000 -0.410000
v -0.050000 1.600000 -0.410000
v -0.050000 3.000000 -0.410000
v -0.550000 3.000000 -0.410000
f 289/2/6 292/2/6 291/2/6 290/2/6
f 293/2/5 294/2/5 295/2/5 296/2/5
f 289/2/4 290/2/4 294/2/4 293/2/4
f 290/2/1 291/2/1 295/2/1 294/2/1
f 291/2/3 292/2/3 296/2/3 295/2/3
f 292/2/2 289/2/2 293/2/2 296/2/2

v -0.550000 1.580000 -0.475000
v -0.050000 1.580000 -0.475000
v -0.050000 1.660000 -0.475000
v -0.550000 1.660000 -0.475000
v -0.550000 1.580000 -0.405000
v -0.050000 1.580000 -0.405000
v -0.050000 1.660000 -0.405000
v -0.550000 1.660000 -0.405000
f 297/4/6 300/4/6 299/4/6 298/4/6
f 301/4/5 302/4/5 303/4/5 304/4/5
f 297/4/4 298/4/4 302/4/4 301/4/4
f 298/4/1 299/4/1 303/4/1 302/4/1
f 299/4/3 300/4/3 304/4/3 303/4/3
f 300/4/2 297/4/2 301/4/2 304/4/2

v -0.370000 2.930000 -0.500000
v -0.230000 2.930000 -0.500000
v -0.230000 3.070000 -0.500000
v -0.370000 3.070000 -0.500000
v -0.370000 2.930000 -0.380000
v -0.230000 2.930000 -0.380000
v -0.230000 3.070000 -0.380000
v -0.370000 3.070000 -0.380000
f 305/3/6 308/3/6 307/3/6 306/3/6
f 309/3/5 310/3/5 311/3/5 312/3/5
f 305/3/4 306/3/4 310/3/4 309/3/4
f 306/3/1 307/3/1 311/3/1 310/3/1
f 307/3/3 308/3/3 312/3/3 311/3/3
f 308/3/2 305/3/2 309/3/2 312/3/2

g $vulcans
v 0.165000 3.660000 0.065000
v 0.235000 3.660000 0.065000
v 0.235000 4.100000 0.065000
v 0.165000 4.100000 0.065000
v 0.165000 3.660000 0.135000
v 0.235000 3.660000 0.135000
v 0.235000 4.100000 0.135000
v 0.165000 4.100000 0.135000
f 313/6/6 316/6/6 315/6/6 314/6/6
f 317/6/5 318/6/5 319/6/5 320/6/5
f 313/6/4 314/6/4 318/6/4 317/6/4
f 314/6/1 315/6/1 319/6/1 318/6/1
f 315/6/3 316/6/3 320/6/3 319/6/3
f 316/6/2 313/6/2 317/6/2 320/6/2

v -0.235000 3.660000 0.065000
v -0.165000 3.660000 0.065000
v -0.165000 4.100000 0.065000
v -0.235000 4.100000 0.065000
v -0.235000 3.660000 0.135000
v -0.165000 3.660000 0.135000
v -0.165000 4.100000 0.135000
v -0.235000 4.100000 0.135000
f 321/6/6 324/6/6 323/6/6 322/6/6
f 325/6/5 326/6/5 327/6/5 328/6/5
f 321/6/4 322/6/4 326/6/4 325/6/4
f 322/6/1 323/6/1 327/6/1 326/6/1
f 323/6/3 324/6/3 328/6/3 327/6/3
f 324/6/2 321/6/2 325/6/2 328/6/2

