# Quad Flyer - humanoidrobotaddon sample (generated by tools/make_vehicles.py)

vt 0.031250 0.500000
vt 0.093750 0.500000
vt 0.156250 0.500000
vt 0.218750 0.500000
vt 0.281250 0.500000
vt 0.343750 0.500000
vt 0.406250 0.500000
vt 0.468750 0.500000
vn 1 0 0
vn -1 0 0
vn 0 1 0
vn 0 -1 0
vn 0 0 1
vn 0 0 -1

g body
v -0.800000 1.600000 -1.100000
v 0.800000 1.600000 -1.100000
v 0.800000 2.300000 -1.100000
v -0.800000 2.300000 -1.100000
v -0.800000 1.600000 1.100000
v 0.800000 1.600000 1.100000
v 0.800000 2.300000 1.100000
v -0.800000 2.300000 1.100000
f 1/1/6 4/1/6 3/1/6 2/1/6
f 5/1/5 6/1/5 7/1/5 8/1/5
f 1/1/4 2/1/4 6/1/4 5/1/4
f 2/1/1 3/1/1 7/1/1 6/1/1
f 3/1/3 4/1/3 8/1/3 7/1/3
f 4/1/2 1/1/2 5/1/2 8/1/2

v -0.550000 2.290000 -1.050000
v 0.550000 2.290000 -1.050000
v 0.550000 2.390000 -1.050000
v -0.550000 2.390000 -1.050000
v -0.550000 2.290000 -0.050000
v 0.550000 2.290000 -0.050000
v 0.550000 2.390000 -0.050000
v -0.550000 2.390000 -0.050000
f 9/2/6 12/2/6 11/2/6 10/2/6
f 13/2/5 14/2/5 15/2/5 16/2/5
f 9/2/4 10/2/4 14/2/4 13/2/4
f 10/2/1 11/2/1 15/2/1 14/2/1
f 11/2/3 12/2/3 16/2/3 15/2/3
f 12/2/2 9/2/2 13/2/2 16/2/2

v -0.100000 2.275000 -1.200000
v 0.100000 2.275000 -1.200000
v 0.100000 2.625000 -1.200000
v -0.100000 2.625000 -1.200000
v -0.100000 2.275000 -0.800000
v 0.100000 2.275000 -0.800000
v 0.100000 2.625000 -0.800000
v -0.100000 2.625000 -0.800000
f 17/4/6 20/4/6 19/4/6 18/4/6
f 21/4/5 22/4/5 23/4/5 24/4/5
f 17/4/4 18/4/4 22/4/4 21/4/4
f 18/4/1 19/4/1 23/4/1 22/4/1
f 19/4/3 20/4/3 24/4/3 23/4/3
f 20/4/2 17/4/2 21/4/2 24/4/2

v -0.650000 2.350000 -0.050000
v 0.650000 2.350000 -0.050000
v 0.650000 3.650000 -0.050000
v -0.650000 3.650000 -0.050000
v -0.650000 2.350000 0.750000
v 0.650000 2.350000 0.750000
v 0.650000 3.650000 0.750000
v -0.650000 3.650000 0.750000
f 25/1/6 28/1/6 27/1/6 26/1/6
f 29/1/5 30/1/5 31/1/5 32/1/5
f 25/1/4 26/1/4 30/1/4 29/1/4
f 26/1/1 27/1/1 31/1/1 30/1/1
f 27/1/3 28/1/3 32/1/3 31/1/3
f 28/1/2 25/1/2 29/1/2 32/1/2

v -0.450000 2.750000 0.740000
v 0.450000 2.750000 0.740000
v 0.450000 3.450000 0.740000
v -0.450000 3.450000 0.740000
v -0.450000 2.750000 0.780000
v 0.450000 2.750000 0.780000
v 0.450000 3.450000 0.780000
v -0.450000 3.450000 0.780000
f 33/2/6 36/2/6 35/2/6 34/2/6
f 37/2/5 38/2/5 39/2/5 40/2/5
f 33/2/4 34/2/4 38/2/4 37/2/4
f 34/2/1 35/2/1 39/2/1 38/2/1
f 35/2/3 36/2/3 40/2/3 39/2/3
f 36/2/2 33/2/2 37/2/2 40/2/2

g $head
v -0.300000 3.650000 0.050000
v 0.300000 3.650000 0.050000
v 0.300000 4.150000 0.050000
v -0.300000 4.150000 0.050000
v -0.300000 3.650000 0.650000
v 0.300000 3.650000 0.650000
v 0.300000 4.150000 0.650000
v -0.300000 4.150000 0.650000
f 41/1/6 44/1/6 43/1/6 42/1/6
f 45/1/5 46/1/5 47/1/5 48/1/5
f 41/1/4 42/1/4 46/1/4 45/1/4
f 42/1/1 43/1/1 47/1/1 46/1/1
f 43/1/3 44/1/3 48/1/3 47/1/3
f 44/1/2 41/1/2 45/1/2 48/1/2

v -0.225000 3.850000 0.640000
v 0.225000 3.850000 0.640000
v 0.225000 3.990000 0.640000
v -0.225000 3.990000 0.640000
v -0.225000 3.850000 0.680000
v 0.225000 3.850000 0.680000
v 0.225000 3.990000 0.680000
v -0.225000 3.990000 0.680000
f 49/5/6 52/5/6 51/5/6 50/5/6
f 53/5/5 54/5/5 55/5/5 56/5/5
f 49/5/4 50/5/4 54/5/4 53/5/4
f 50/5/1 51/5/1 55/5/1 54/5/1
f 51/5/3 52/5/3 56/5/3 55/5/3
f 52/5/2 49/5/2 53/5/2 56/5/2

g $arm_r
v 0.950000 3.100000 0.150000
v 1.350000 3.100000 0.150000
v 1.350000 3.500000 0.150000
v 0.950000 3.500000 0.150000
v 0.950000 3.100000 0.550000
v 1.350000 3.100000 0.550000
v 1.350000 3.500000 0.550000
v 0.950000 3.500000 0.550000
f 57/3/6 60/3/6 59/3/6 58/3/6
f 61/3/5 62/3/5 63/3/5 64/3/5
f 57/3/4 58/3/4 62/3/4 61/3/4
f 58/3/1 59/3/1 63/3/1 62/3/1
f 59/3/3 60/3/3 64/3/3 63/3/3
f 60/3/2 57/3/2 61/3/2 64/3/2

v 0.970000 2.650000 0.170000
v 1.330000 2.650000 0.170000
v 1.330000 3.250000 0.170000
v 0.970000 3.250000 0.170000
v 0.970000 2.650000 0.530000
v 1.330000 2.650000 0.530000
v 1.330000 3.250000 0.530000
v 0.970000 3.250000 0.530000
f 65/1/6 68/1/6 67/1/6 66/1/6
f 69/1/5 70/1/5 71/1/5 72/1/5
f 65/1/4 66/1/4 70/1/4 69/1/4
f 66/1/1 67/1/1 71/1/1 70/1/1
f 67/1/3 68/1/3 72/1/3 71/1/3
f 68/1/2 65/1/2 69/1/2 72/1/2

g $forearm_r
v 0.960000 2.600000 0.160000
v 1.340000 2.600000 0.160000
v 1.340000 2.900000 0.160000
v 0.960000 2.900000 0.160000
v 0.960000 2.600000 0.540000
v 1.340000 2.600000 0.540000
v 1.340000 2.900000 0.540000
v 0.960000 2.900000 0.540000
f 73/3/6 76/3/6 75/3/6 74/3/6
f 77/3/5 78/3/5 79/3/5 80/3/5
f 73/3/4 74/3/4 78/3/4 77/3/4
f 74/3/1 75/3/1 79/3/1 78/3/1
f 75/3/3 76/3/3 80/3/3 79/3/3
f 76/3/2 73/3/2 77/3/2 80/3/2

v 0.980000 2.580000 0.250000
v 1.320000 2.580000 0.250000
v 1.320000 2.920000 0.250000
v 0.980000 2.920000 0.250000
v 0.980000 2.580000 1.150000
v 1.320000 2.580000 1.150000
v 1.320000 2.920000 1.150000
v 0.980000 2.920000 1.150000
f 81/1/6 84/1/6 83/1/6 82/1/6
f 85/1/5 86/1/5 87/1/5 88/1/5
f 81/1/4 82/1/4 86/1/4 85/1/4
f 82/1/1 83/1/1 87/1/1 86/1/1
f 83/1/3 84/1/3 88/1/3 87/1/3
f 84/1/2 81/1/2 85/1/2 88/1/2

v 1.060000 2.640000 0.600000
v 1.240000 2.640000 0.600000
v 1.240000 2.860000 0.600000
v 1.060000 2.860000 0.600000
v 1.060000 2.640000 1.700000
v 1.240000 2.640000 1.700000
v 1.240000 2.860000 1.700000
v 1.060000 2.860000 1.700000
f 89/6/6 92/6/6 91/6/6 90/6/6
f 93/6/5 94/6/5 95/6/5 96/6/5
f 89/6/4 90/6/4 94/6/4 93/6/4
f 90/6/1 91/6/1 95/6/1 94/6/1
f 91/6/3 92/6/3 96/6/3 95/6/3
f 92/6/2 89/6/2 93/6/2 96/6/2

v 1.100000 2.700000 1.500000
v 1.200000 2.700000 1.500000
v 1.200000 2.800000 1.500000
v 1.100000 2.800000 1.500000
v 1.100000 2.700000 1.800000
v 1.200000 2.700000 1.800000
v 1.200000 2.800000 1.800000
v 1.100000 2.800000 1.800000
f 97/6/6 100/6/6 99/6/6 98/6/6
f 101/6/5 102/6/5 103/6/5 104/6/5
f 97/6/4 98/6/4 102/6/4 101/6/4
f 98/6/1 99/6/1 103/6/1 102/6/1
f 99/6/3 100/6/3 104/6/3 103/6/3
f 100/6/2 97/6/2 101/6/2 104/6/2

g $upperarm_l
v -1.350000 3.100000 0.150000
v -0.950000 3.100000 0.150000
v -0.950000 3.500000 0.150000
v -1.350000 3.500000 0.150000
v -1.350000 3.100000 0.550000
v -0.950000 3.100000 0.550000
v -0.950000 3.500000 0.550000
v -1.350000 3.500000 0.550000
f 105/3/6 108/3/6 107/3/6 106/3/6
f 109/3/5 110/3/5 111/3/5 112/3/5
f 105/3/4 106/3/4 110/3/4 109/3/4
f 106/3/1 107/3/1 111/3/1 110/3/1
f 107/3/3 108/3/3 112/3/3 111/3/3
f 108/3/2 105/3/2 109/3/2 112/3/2

v -1.330000 2.650000 0.170000
v -0.970000 2.650000 0.170000
v -0.970000 3.290000 0.170000
v -1.330000 3.290000 0.170000
v -1.330000 2.650000 0.530000
v -0.970000 2.650000 0.530000
v -0.970000 3.290000 0.530000
v -1.330000 3.290000 0.530000
f 113/1/6 116/1/6 115/1/6 114/1/6
f 117/1/5 118/1/5 119/1/5 120/1/5
f 113/1/4 114/1/4 118/1/4 117/1/4
f 114/1/1 115/1/1 119/1/1 118/1/1
f 115/1/3 116/1/3 120/1/3 119/1/3
f 116/1/2 113/1/2 117/1/2 120/1/2

g $forearm_l
v -1.320000 2.540000 0.180000
v -0.980000 2.540000 0.180000
v -0.980000 2.760000 0.180000
v -1.320000 2.760000 0.180000
v -1.320000 2.540000 0.520000
v -0.980000 2.540000 0.520000
v -0.980000 2.760000 0.520000
v -1.320000 2.760000 0.520000
f 121/3/6 124/3/6 123/3/6 122/3/6
f 125/3/5 126/3/5 127/3/5 128/3/5
f 121/3/4 122/3/4 126/3/4 125/3/4
f 122/3/1 123/3/1 127/3/1 126/3/1
f 123/3/3 124/3/3 128/3/3 127/3/3
f 124/3/2 121/3/2 125/3/2 128/3/2

v -1.320000 2.100000 0.180000
v -0.980000 2.100000 0.180000
v -0.980000 2.600000 0.180000
v -1.320000 2.600000 0.180000
v -1.320000 2.100000 0.520000
v -0.980000 2.100000 0.520000
v -0.980000 2.600000 0.520000
v -1.320000 2.600000 0.520000
f 129/1/6 132/1/6 131/1/6 130/1/6
f 133/1/5 134/1/5 135/1/5 136/1/5
f 129/1/4 130/1/4 134/1/4 133/1/4
f 130/1/1 131/1/1 135/1/1 134/1/1
f 131/1/3 132/1/3 136/1/3 135/1/3
f 132/1/2 129/1/2 133/1/2 136/1/2

v -1.300000 1.930000 0.200000
v -1.000000 1.930000 0.200000
v -1.000000 2.130000 0.200000
v -1.300000 2.130000 0.200000
v -1.300000 1.930000 0.500000
v -1.000000 1.930000 0.500000
v -1.000000 2.130000 0.500000
v -1.300000 2.130000 0.500000
f 137/3/6 140/3/6 139/3/6 138/3/6
f 141/3/5 142/3/5 143/3/5 144/3/5
f 137/3/4 138/3/4 142/3/4 141/3/4
f 138/3/1 139/3/1 143/3/1 142/3/1
f 139/3/3 140/3/3 144/3/3 143/3/3
f 140/3/2 137/3/2 141/3/2 144/3/2

g $shoulder_pod_l
v 0.675000 3.570000 -0.050000
v 1.225000 3.570000 -0.050000
v 1.225000 3.970000 -0.050000
v 0.675000 3.970000 -0.050000
v 0.675000 3.570000 0.850000
v 1.225000 3.570000 0.850000
v 1.225000 3.970000 0.850000
v 0.675000 3.970000 0.850000
f 145/7/6 148/7/6 147/7/6 146/7/6
f 149/7/5 150/7/5 151/7/5 152/7/5
f 145/7/4 146/7/4 150/7/4 149/7/4
f 146/7/1 147/7/1 151/7/1 150/7/1
f 147/7/3 148/7/3 152/7/3 151/7/3
f 148/7/2 145/7/2 149/7/2 152/7/2

v 0.725000 3.620000 0.840000
v 1.175000 3.620000 0.840000
v 1.175000 3.920000 0.840000
v 0.725000 3.920000 0.840000
v 0.725000 3.620000 0.880000
v 1.175000 3.620000 0.880000
v 1.175000 3.920000 0.880000
v 0.725000 3.920000 0.880000
f 153/4/6 156/4/6 155/4/6 154/4/6
f 157/4/5 158/4/5 159/4/5 160/4/5
f 153/4/4 154/4/4 158/4/4 157/4/4
f 154/4/1 155/4/1 159/4/1 158/4/1
f 155/4/3 156/4/3 160/4/3 159/4/3
f 156/4/2 153/4/2 157/4/2 160/4/2

v 0.760000 3.830000 0.860000
v 0.840000 3.830000 0.860000
v 0.840000 3.910000 0.860000
v 0.760000 3.910000 0.860000
v 0.760000 3.830000 0.880000
v 0.840000 3.830000 0.880000
v 0.840000 3.910000 0.880000
v 0.760000 3.910000 0.880000
f 161/3/6 164/3/6 163/3/6 162/3/6
f 165/3/5 166/3/5 167/3/5 168/3/5
f 161/3/4 162/3/4 166/3/4 165/3/4
f 162/3/1 163/3/1 167/3/1 166/3/1
f 163/3/3 164/3/3 168/3/3 167/3/3
f 164/3/2 161/3/2 165/3/2 168/3/2

v 0.910000 3.830000 0.860000
v 0.990000 3.830000 0.860000
v 0.990000 3.910000 0.860000
v 0.910000 3.910000 0.860000
v 0.910000 3.830000 0.880000
v 0.990000 3.830000 0.880000
v 0.990000 3.910000 0.880000
v 0.910000 3.910000 0.880000
f 169/3/6 172/3/6 171/3/6 170/3/6
f 173/3/5 174/3/5 175/3/5 176/3/5
f 169/3/4 170/3/4 174/3/4 173/3/4
f 170/3/1 171/3/1 175/3/1 174/3/1
f 171/3/3 172/3/3 176/3/3 175/3/3
f 172/3/2 169/3/2 173/3/2 176/3/2

v 1.060000 3.830000 0.860000
v 1.140000 3.830000 0.860000
v 1.140000 3.910000 0.860000
v 1.060000 3.910000 0.860000
v 1.060000 3.830000 0.880000
v 1.140000 3.830000 0.880000
v 1.140000 3.910000 0.880000
v 1.060000 3.910000 0.880000
f 177/3/6 180/3/6 179/3/6 178/3/6
f 181/3/5 182/3/5 183/3/5 184/3/5
f 177/3/4 178/3/4 182/3/4 181/3/4
f 178/3/1 179/3/1 183/3/1 182/3/1
f 179/3/3 180/3/3 184/3/3 183/3/3
f 180/3/2 177/3/2 181/3/2 184/3/2

g $thigh_fr
v 0.670000 1.520000 0.770000
v 1.030000 1.520000 0.770000
v 1.030000 1.880000 0.770000
v 0.670000 1.880000 0.770000
v 0.670000 1.520000 1.130000
v 1.030000 1.520000 1.130000
v 1.030000 1.880000 1.130000
v 0.670000 1.880000 1.130000
f 185/3/6 188/3/6 187/3/6 186/3/6
f 189/3/5 190/3/5 191/3/5 192/3/5
f 185/3/4 186/3/4 190/3/4 189/3/4
f 186/3/1 187/3/1 191/3/1 190/3/1
f 187/3/3 188/3/3 192/3/3 191/3/3
f 188/3/2 185/3/2 189/3/2 192/3/2

v 0.710000 0.770000 0.810000
v 0.990000 0.770000 0.810000
v 0.990000 1.670000 0.810000
v 0.710000 1.670000 0.810000
v 0.710000 0.770000 1.090000
v 0.990000 0.770000 1.090000
v 0.990000 1.670000 1.090000
v 0.710000 1.670000 1.090000
f 193/1/6 196/1/6 195/1/6 194/1/6
f 197/1/5 198/1/5 199/1/5 200/1/5
f 193/1/4 194/1/4 198/1/4 197/1/4
f 194/1/1 195/1/1 199/1/1 198/1/1
f 195/1/3 196/1/3 200/1/3 199/1/3
f 196/1/2 193/1/2 197/1/2 200/1/2

g $shin_fr
v 0.700000 0.630000 0.800000
v 1.000000 0.630000 0.800000
v 1.000000 0.870000 0.800000
v 0.700000 0.870000 0.800000
v 0.700000 0.630000 1.100000
v 1.000000 0.630000 1.100000
v 1.000000 0.870000 1.100000
v 0.700000 0.870000 1.100000
f 201/3/6 204/3/6 203/3/6 202/3/6
f 205/3/5 206/3/5 207/3/5 208/3/5
f 201/3/4 202/3/4 206/3/4 205/3/4
f 202/3/1 203/3/1 207/3/1 206/3/1
f 203/3/3 204/3/3 208/3/3 207/3/3
f 204/3/2 201/3/2 205/3/2 208/3/2

v 0.730000 0.110000 0.830000
v 0.970000 0.110000 0.830000
v 0.970000 0.730000 0.830000
v 0.730000 0.730000 0.830000
v 0.730000 0.110000 1.070000
v 0.970000 0.110000 1.070000
v 0.970000 0.730000 1.070000
v 0.730000 0.730000 1.070000
f 209/2/6 212/2/6 211/2/6 210/2/6
f 213/2/5 214/2/5 215/2/5 216/2/5
f 209/2/4 210/2/4 214/2/4 213/2/4
f 210/2/1 211/2/1 215/2/1 214/2/1
f 211/2/3 212/2/3 216/2/3 215/2/3
f 212/2/2 209/2/2 213/2/2 216/2/2

v 0.680000 0.000000 0.780000
v 1.020000 0.000000 0.780000
v 1.020000 0.160000 0.780000
v 0.680000 0.160000 0.780000
v 0.680000 0.000000 1.220000
v 1.020000 0.000000 1.220000
v 1.020000 0.160000 1.220000
v 0.680000 0.160000 1.220000
f 217/8/6 220/8/6 219/8/6 218/8/6
f 221/8/5 222/8/5 223/8/5 224/8/5
f 217/8/4 218/8/4 222/8/4 221/8/4
f 218/8/1 219/8/1 223/8/1 222/8/1
f 219/8/3 220/8/3 224/8/3 223/8/3
f 220/8/2 217/8/2 221/8/2 224/8/2

g $thigh_fl
v -1.030000 1.520000 0.770000
v -0.670000 1.520000 0.770000
v -0.670000 1.880000 0.770000
v -1.030000 1.880000 0.770000
v -1.030000 1.520000 1.130000
v -0.670000 1.520000 1.130000
v -0.670000 1.880000 1.130000
v -1.030000 1.880000 1.130000
f 225/3/6 228/3/6 227/3/6 226/3/6
f 229/3/5 230/3/5 231/3/5 232/3/5
f 225/3/4 226/3/4 230/3/4 229/3/4
f 226/3/1 227/3/1 231/3/1 230/3/1
f 227/3/3 228/3/3 232/3/3 231/3/3
f 228/3/2 225/3/2 229/3/2 232/3/2

v -0.990000 0.770000 0.810000
v -0.710000 0.770000 0.810000
v -0.710000 1.670000 0.810000
v -0.990000 1.670000 0.810000
v -0.990000 0.770000 1.090000
v -0.710000 0.770000 1.090000
v -0.710000 1.670000 1.090000
v -0.990000 1.670000 1.090000
f 233/1/6 236/1/6 235/1/6 234/1/6
f 237/1/5 238/1/5 239/1/5 240/1/5
f 233/1/4 234/1/4 238/1/4 237/1/4
f 234/1/1 235/1/1 239/1/1 238/1/1
f 235/1/3 236/1/3 240/1/3 239/1/3
f 236/1/2 233/1/2 237/1/2 240/1/2

g $shin_fl
v -1.000000 0.630000 0.800000
v -0.700000 0.630000 0.800000
v -0.700000 0.870000 0.800000
v -1.000000 0.870000 0.800000
v -1.000000 0.630000 1.100000
v -0.700000 0.630000 1.100000
v -0.700000 0.870000 1.100000
v -1.000000 0.870000 1.100000
f 241/3/6 244/3/6 243/3/6 242/3/6
f 245/3/5 246/3/5 247/3/5 248/3/5
f 241/3/4 242/3/4 246/3/4 245/3/4
f 242/3/1 243/3/1 247/3/1 246/3/1
f 243/3/3 244/3/3 248/3/3 247/3/3
f 244/3/2 241/3/2 245/3/2 248/3/2

v -0.970000 0.110000 0.830000
v -0.730000 0.110000 0.830000
v -0.730000 0.730000 0.830000
v -0.970000 0.730000 0.830000
v -0.970000 0.110000 1.070000
v -0.730000 0.110000 1.070000
v -0.730000 0.730000 1.070000
v -0.970000 0.730000 1.070000
f 249/2/6 252/2/6 251/2/6 250/2/6
f 253/2/5 254/2/5 255/2/5 256/2/5
f 249/2/4 250/2/4 254/2/4 253/2/4
f 250/2/1 251/2/1 255/2/1 254/2/1
f 251/2/3 252/2/3 256/2/3 255/2/3
f 252/2/2 249/2/2 253/2/2 256/2/2

v -1.020000 0.000000 0.780000
v -0.680000 0.000000 0.780000
v -0.680000 0.160000 0.780000
v -1.020000 0.160000 0.780000
v -1.020000 0.000000 1.220000
v -0.680000 0.000000 1.220000
v -0.680000 0.160000 1.220000
v -1.020000 0.160000 1.220000
f 257/8/6 260/8/6 259/8/6 258/8/6
f 261/8/5 262/8/5 263/8/5 264/8/5
f 257/8/4 258/8/4 262/8/4 261/8/4
f 258/8/1 259/8/1 263/8/1 262/8/1
f 259/8/3 260/8/3 264/8/3 263/8/3
f 260/8/2 257/8/2 261/8/2 264/8/2

g $thigh_br
v 0.670000 1.520000 -1.130000
v 1.030000 1.520000 -1.130000
v 1.030000 1.880000 -1.130000
v 0.670000 1.880000 -1.130000
v 0.670000 1.520000 -0.770000
v 1.030000 1.520000 -0.770000
v 1.030000 1.880000 -0.770000
v 0.670000 1.880000 -0.770000
f 265/3/6 268/3/6 267/3/6 266/3/6
f 269/3/5 270/3/5 271/3/5 272/3/5
f 265/3/4 266/3/4 270/3/4 269/3/4
f 266/3/1 267/3/1 271/3/1 270/3/1
f 267/3/3 268/3/3 272/3/3 271/3/3
f 268/3/2 265/3/2 269/3/2 272/3/2

v 0.710000 0.770000 -1.090000
v 0.990000 0.770000 -1.090000
v 0.990000 1.670000 -1.090000
v 0.710000 1.670000 -1.090000
v 0.710000 0.770000 -0.810000
v 0.990000 0.770000 -0.810000
v 0.990000 1.670000 -0.810000
v 0.710000 1.670000 -0.810000
f 273/1/6 276/1/6 275/1/6 274/1/6
f 277/1/5 278/1/5 279/1/5 280/1/5
f 273/1/4 274/1/4 278/1/4 277/1/4
f 274/1/1 275/1/1 279/1/1 278/1/1
f 275/1/3 276/1/3 280/1/3 279/1/3
f 276/1/2 273/1/2 277/1/2 280/1/2

g $shin_br
v 0.700000 0.630000 -1.100000
v 1.000000 0.630000 -1.100000
v 1.000000 0.870000 -1.100000
v 0.700000 0.870000 -1.100000
v 0.700000 0.630000 -0.800000
v 1.000000 0.630000 -0.800000
v 1.000000 0.870000 -0.800000
v 0.700000 0.870000 -0.800000
f 281/3/6 284/3/6 283/3/6 282/3/6
f 285/3/5 286/3/5 287/3/5 288/3/5
f 281/3/4 282/3/4 286/3/4 285/3/4
f 282/3/1 283/3/1 287/3/1 286/3/1
f 283/3/3 284/3/3 288/3/3 287/3/3
f 284/3/2 281/3/2 285/3/2 288/3/2

v 0.730000 0.110000 -1.070000
v 0.970000 0.110000 -1.070000
v 0.970000 0.730000 -1.070000
v 0.730000 0.730000 -1.070000
v 0.730000 0.110000 -0.830000
v 0.970000 0.110000 -0.830000
v 0.970000 0.730000 -0.830000
v 0.730000 0.730000 -0.830000
f 289/2/6 292/2/6 291/2/6 290/2/6
f 293/2/5 294/2/5 295/2/5 296/2/5
f 289/2/4 290/2/4 294/2/4 293/2/4
f 290/2/1 291/2/1 295/2/1 294/2/1
f 291/2/3 292/2/3 296/2/3 295/2/3
f 292/2/2 289/2/2 293/2/2 296/2/2

v 0.680000 0.000000 -1.120000
v 1.020000 0.000000 -1.120000
v 1.020000 0.160000 -1.120000
v 0.680000 0.160000 -1.120000
v 0.680000 0.000000 -0.680000
v 1.020000 0.000000 -0.680000
v 1.020000 0.160000 -0.680000
v 0.680000 0.160000 -0.680000
f 297/8/6 300/8/6 299/8/6 298/8/6
f 301/8/5 302/8/5 303/8/5 304/8/5
f 297/8/4 298/8/4 302/8/4 301/8/4
f 298/8/1 299/8/1 303/8/1 302/8/1
f 299/8/3 300/8/3 304/8/3 303/8/3
f 300/8/2 297/8/2 301/8/2 304/8/2

g $thigh_bl
v -1.030000 1.520000 -1.130000
v -0.670000 1.520000 -1.130000
v -0.670000 1.880000 -1.130000
v -1.030000 1.880000 -1.130000
v -1.030000 1.520000 -0.770000
v -0.670000 1.520000 -0.770000
v -0.670000 1.880000 -0.770000
v -1.030000 1.880000 -0.770000
f 305/3/6 308/3/6 307/3/6 306/3/6
f 309/3/5 310/3/5 311/3/5 312/3/5
f 305/3/4 306/3/4 310/3/4 309/3/4
f 306/3/1 307/3/1 311/3/1 310/3/1
f 307/3/3 308/3/3 312/3/3 311/3/3
f 308/3/2 305/3/2 309/3/2 312/3/2

v -0.990000 0.770000 -1.090000
v -0.710000 0.770000 -1.090000
v -0.710000 1.670000 -1.090000
v -0.990000 1.670000 -1.090000
v -0.990000 0.770000 -0.810000
v -0.710000 0.770000 -0.810000
v -0.710000 1.670000 -0.810000
v -0.990000 1.670000 -0.810000
f 313/1/6 316/1/6 315/1/6 314/1/6
f 317/1/5 318/1/5 319/1/5 320/1/5
f 313/1/4 314/1/4 318/1/4 317/1/4
f 314/1/1 315/1/1 319/1/1 318/1/1
f 315/1/3 316/1/3 320/1/3 319/1/3
f 316/1/2 313/1/2 317/1/2 320/1/2

g $shin_bl
v -1.000000 0.630000 -1.100000
v -0.700000 0.630000 -1.100000
v -0.700000 0.870000 -1.100000
v -1.000000 0.870000 -1.100000
v -1.000000 0.630000 -0.800000
v -0.700000 0.630000 -0.800000
v -0.700000 0.870000 -0.800000
v -1.000000 0.870000 -0.800000
f 321/3/6 324/3/6 323/3/6 322/3/6
f 325/3/5 326/3/5 327/3/5 328/3/5
f 321/3/4 322/3/4 326/3/4 325/3/4
f 322/3/1 323/3/1 327/3/1 326/3/1
f 323/3/3 324/3/3 328/3/3 327/3/3
f 324/3/2 321/3/2 325/3/2 328/3/2

v -0.970000 0.110000 -1.070000
v -0.730000 0.110000 -1.070000
v -0.730000 0.730000 -1.070000
v -0.970000 0.730000 -1.070000
v -0.970000 0.110000 -0.830000
v -0.730000 0.110000 -0.830000
v -0.730000 0.730000 -0.830000
v -0.970000 0.730000 -0.830000
f 329/2/6 332/2/6 331/2/6 330/2/6
f 333/2/5 334/2/5 335/2/5 336/2/5
f 329/2/4 330/2/4 334/2/4 333/2/4
f 330/2/1 331/2/1 335/2/1 334/2/1
f 331/2/3 332/2/3 336/2/3 335/2/3
f 332/2/2 329/2/2 333/2/2 336/2/2

v -1.020000 0.000000 -1.120000
v -0.680000 0.000000 -1.120000
v -0.680000 0.160000 -1.120000
v -1.020000 0.160000 -1.120000
v -1.020000 0.000000 -0.680000
v -0.680000 0.000000 -0.680000
v -0.680000 0.160000 -0.680000
v -1.020000 0.160000 -0.680000
f 337/8/6 340/8/6 339/8/6 338/8/6
f 341/8/5 342/8/5 343/8/5 344/8/5
f 337/8/4 338/8/4 342/8/4 341/8/4
f 338/8/1 339/8/1 343/8/1 342/8/1
f 339/8/3 340/8/3 344/8/3 343/8/3
f 340/8/2 337/8/2 341/8/2 344/8/2

g $thrusters
v 0.300000 1.520000 -0.550000
v 0.600000 1.520000 -0.550000
v 0.600000 1.720000 -0.550000
v 0.300000 1.720000 -0.550000
v 0.300000 1.520000 -0.250000
v 0.600000 1.520000 -0.250000
v 0.600000 1.720000 -0.250000
v 0.300000 1.720000 -0.250000
f 345/4/6 348/4/6 347/4/6 346/4/6
f 349/4/5 350/4/5 351/4/5 352/4/5
f 345/4/4 346/4/4 350/4/4 349/4/4
f 346/4/1 347/4/1 351/4/1 350/4/1
f 347/4/3 348/4/3 352/4/3 351/4/3
f 348/4/2 345/4/2 349/4/2 352/4/2

v -0.600000 1.520000 -0.550000
v -0.300000 1.520000 -0.550000
v -0.300000 1.720000 -0.550000
v -0.600000 1.720000 -0.550000
v -0.600000 1.520000 -0.250000
v -0.300000 1.520000 -0.250000
v -0.300000 1.720000 -0.250000
v -0.600000 1.720000 -0.250000
f 353/4/6 356/4/6 355/4/6 354/4/6
f 357/4/5 358/4/5 359/4/5 360/4/5
f 353/4/4 354/4/4 358/4/4 357/4/4
f 354/4/1 355/4/1 359/4/1 358/4/1
f 355/4/3 356/4/3 360/4/3 359/4/3
f 356/4/2 353/4/2 357/4/2 360/4/2

