# Sample Walker - humanoidrobotaddon sample (generated by tools/make_sample_walker.py)

vt 0.031250 0.500000
vt 0.093750 0.500000
vt 0.156250 0.500000
vt 0.218750 0.500000
vt 0.281250 0.500000
vt 0.343750 0.500000
vt 0.406250 0.500000
vt 0.468750 0.500000
vn 1 0 0
vn -1 0 0
vn 0 1 0
vn 0 -1 0
vn 0 0 1
vn 0 0 -1

g body
v -0.650000 1.900000 -0.400000
v 0.650000 1.900000 -0.400000
v 0.650000 3.200000 -0.400000
v -0.650000 3.200000 -0.400000
v -0.650000 1.900000 0.400000
v 0.650000 1.900000 0.400000
v 0.650000 3.200000 0.400000
v -0.650000 3.200000 0.400000
f 1/1/6 4/1/6 3/1/6 2/1/6
f 5/1/5 6/1/5 7/1/5 8/1/5
f 1/1/4 2/1/4 6/1/4 5/1/4
f 2/1/1 3/1/1 7/1/1 6/1/1
f 3/1/3 4/1/3 8/1/3 7/1/3
f 4/1/2 1/1/2 5/1/2 8/1/2

v -0.450000 2.250000 0.380000
v 0.450000 2.250000 0.380000
v 0.450000 3.050000 0.380000
v -0.450000 3.050000 0.380000
v -0.450000 2.250000 0.460000
v 0.450000 2.250000 0.460000
v 0.450000 3.050000 0.460000
v -0.450000 3.050000 0.460000
f 9/2/6 12/2/6 11/2/6 10/2/6
f 13/2/5 14/2/5 15/2/5 16/2/5
f 9/2/4 10/2/4 14/2/4 13/2/4
f 10/2/1 11/2/1 15/2/1 14/2/1
f 11/2/3 12/2/3 16/2/3 15/2/3
f 12/2/2 9/2/2 13/2/2 16/2/2

v -0.150000 2.875000 0.430000
v 0.150000 2.875000 0.430000
v 0.150000 3.025000 0.430000
v -0.150000 3.025000 0.430000
v -0.150000 2.875000 0.490000
v 0.150000 2.875000 0.490000
v 0.150000 3.025000 0.490000
v -0.150000 3.025000 0.490000
f 17/4/6 20/4/6 19/4/6 18/4/6
f 21/4/5 22/4/5 23/4/5 24/4/5
f 17/4/4 18/4/4 22/4/4 21/4/4
f 18/4/1 19/4/1 23/4/1 22/4/1
f 19/4/3 20/4/3 24/4/3 23/4/3
f 20/4/2 17/4/2 21/4/2 24/4/2

v -0.500000 1.650000 -0.350000
v 0.500000 1.650000 -0.350000
v 0.500000 2.050000 -0.350000
v -0.500000 2.050000 -0.350000
v -0.500000 1.650000 0.350000
v 0.500000 1.650000 0.350000
v 0.500000 2.050000 0.350000
v -0.500000 2.050000 0.350000
f 25/3/6 28/3/6 27/3/6 26/3/6
f 29/3/5 30/3/5 31/3/5 32/3/5
f 25/3/4 26/3/4 30/3/4 29/3/4
f 26/3/1 27/3/1 31/3/1 30/3/1
f 27/3/3 28/3/3 32/3/3 31/3/3
f 28/3/2 25/3/2 29/3/2 32/3/2

v 0.600000 2.725000 -0.300000
v 1.100000 2.725000 -0.300000
v 1.100000 3.175000 -0.300000
v 0.600000 3.175000 -0.300000
v 0.600000 2.725000 0.300000
v 1.100000 2.725000 0.300000
v 1.100000 3.175000 0.300000
v 0.600000 3.175000 0.300000
f 33/1/6 36/1/6 35/1/6 34/1/6
f 37/1/5 38/1/5 39/1/5 40/1/5
f 33/1/4 34/1/4 38/1/4 37/1/4
f 34/1/1 35/1/1 39/1/1 38/1/1
f 35/1/3 36/1/3 40/1/3 39/1/3
f 36/1/2 33/1/2 37/1/2 40/1/2

v -1.100000 2.725000 -0.300000
v -0.600000 2.725000 -0.300000
v -0.600000 3.175000 -0.300000
v -1.100000 3.175000 -0.300000
v -1.100000 2.725000 0.300000
v -0.600000 2.725000 0.300000
v -0.600000 3.175000 0.300000
v -1.100000 3.175000 0.300000
f 41/1/6 44/1/6 43/1/6 42/1/6
f 45/1/5 46/1/5 47/1/5 48/1/5
f 41/1/4 42/1/4 46/1/4 45/1/4
f 42/1/1 43/1/1 47/1/1 46/1/1
f 43/1/3 44/1/3 48/1/3 47/1/3
f 44/1/2 41/1/2 45/1/2 48/1/2

v -0.150000 3.055000 -0.150000
v 0.150000 3.055000 -0.150000
v 0.150000 3.205000 -0.150000
v -0.150000 3.205000 -0.150000
v -0.150000 3.055000 0.150000
v 0.150000 3.055000 0.150000
v 0.150000 3.205000 0.150000
v -0.150000 3.205000 0.150000
f 49/3/6 52/3/6 51/3/6 50/3/6
f 53/3/5 54/3/5 55/3/5 56/3/5
f 49/3/4 50/3/4 54/3/4 53/3/4
f 50/3/1 51/3/1 55/3/1 54/3/1
f 51/3/3 52/3/3 56/3/3 55/3/3
f 52/3/2 49/3/2 53/3/2 56/3/2

g $head
v -0.350000 3.200000 -0.300000
v 0.350000 3.200000 -0.300000
v 0.350000 3.900000 -0.300000
v -0.350000 3.900000 -0.300000
v -0.350000 3.200000 0.400000
v 0.350000 3.200000 0.400000
v 0.350000 3.900000 0.400000
v -0.350000 3.900000 0.400000
f 57/2/6 60/2/6 59/2/6 58/2/6
f 61/2/5 62/2/5 63/2/5 64/2/5
f 57/2/4 58/2/4 62/2/4 61/2/4
f 58/2/1 59/2/1 63/2/1 62/2/1
f 59/2/3 60/2/3 64/2/3 63/2/3
f 60/2/2 57/2/2 61/2/2 64/2/2

v -0.250000 3.510000 0.390000
v 0.250000 3.510000 0.390000
v 0.250000 3.690000 0.390000
v -0.250000 3.690000 0.390000
v -0.250000 3.510000 0.430000
v 0.250000 3.510000 0.430000
v 0.250000 3.690000 0.430000
v -0.250000 3.690000 0.430000
f 65/5/6 68/5/6 67/5/6 66/5/6
f 69/5/5 70/5/5 71/5/5 72/5/5
f 65/5/4 66/5/4 70/5/4 69/5/4
f 66/5/1 67/5/1 71/5/1 70/5/1
f 67/5/3 68/5/3 72/5/3 71/5/3
f 68/5/2 65/5/2 69/5/2 72/5/2

v -0.050000 3.850000 0.000000
v 0.050000 3.850000 0.000000
v 0.050000 4.050000 0.000000
v -0.050000 4.050000 0.000000
v -0.050000 3.850000 0.100000
v 0.050000 3.850000 0.100000
v 0.050000 4.050000 0.100000
v -0.050000 4.050000 0.100000
f 73/4/6 76/4/6 75/4/6 74/4/6
f 77/4/5 78/4/5 79/4/5 80/4/5
f 73/4/4 74/4/4 78/4/4 77/4/4
f 74/4/1 75/4/1 79/4/1 78/4/1
f 75/4/3 76/4/3 80/4/3 79/4/3
f 76/4/2 73/4/2 77/4/2 80/4/2

g $arm_r
v 0.950000 2.650000 -0.200000
v 1.350000 2.650000 -0.200000
v 1.350000 3.050000 -0.200000
v 0.950000 3.050000 -0.200000
v 0.950000 2.650000 0.200000
v 1.350000 2.650000 0.200000
v 1.350000 3.050000 0.200000
v 0.950000 3.050000 0.200000
f 81/3/6 84/3/6 83/3/6 82/3/6
f 85/3/5 86/3/5 87/3/5 88/3/5
f 81/3/4 82/3/4 86/3/4 85/3/4
f 82/3/1 83/3/1 87/3/1 86/3/1
f 83/3/3 84/3/3 88/3/3 87/3/3
f 84/3/2 81/3/2 85/3/2 88/3/2

v 0.970000 2.200000 -0.180000
v 1.330000 2.200000 -0.180000
v 1.330000 2.800000 -0.180000
v 0.970000 2.800000 -0.180000
v 0.970000 2.200000 0.180000
v 1.330000 2.200000 0.180000
v 1.330000 2.800000 0.180000
v 0.970000 2.800000 0.180000
f 89/1/6 92/1/6 91/1/6 90/1/6
f 93/1/5 94/1/5 95/1/5 96/1/5
f 89/1/4 90/1/4 94/1/4 93/1/4
f 90/1/1 91/1/1 95/1/1 94/1/1
f 91/1/3 92/1/3 96/1/3 95/1/3
f 92/1/2 89/1/2 93/1/2 96/1/2

g $forearm_r
v 0.960000 2.150000 -0.190000
v 1.340000 2.150000 -0.190000
v 1.340000 2.450000 -0.190000
v 0.960000 2.450000 -0.190000
v 0.960000 2.150000 0.190000
v 1.340000 2.150000 0.190000
v 1.340000 2.450000 0.190000
v 0.960000 2.450000 0.190000
f 97/3/6 100/3/6 99/3/6 98/3/6
f 101/3/5 102/3/5 103/3/5 104/3/5
f 97/3/4 98/3/4 102/3/4 101/3/4
f 98/3/1 99/3/1 103/3/1 102/3/1
f 99/3/3 100/3/3 104/3/3 103/3/3
f 100/3/2 97/3/2 101/3/2 104/3/2

v 0.980000 2.130000 -0.100000
v 1.320000 2.130000 -0.100000
v 1.320000 2.470000 -0.100000
v 0.980000 2.470000 -0.100000
v 0.980000 2.130000 0.800000
v 1.320000 2.130000 0.800000
v 1.320000 2.470000 0.800000
v 0.980000 2.470000 0.800000
f 105/1/6 108/1/6 107/1/6 106/1/6
f 109/1/5 110/1/5 111/1/5 112/1/5
f 105/1/4 106/1/4 110/1/4 109/1/4
f 106/1/1 107/1/1 111/1/1 110/1/1
f 107/1/3 108/1/3 112/1/3 111/1/3
f 108/1/2 105/1/2 109/1/2 112/1/2

v 1.060000 2.190000 0.250000
v 1.240000 2.190000 0.250000
v 1.240000 2.410000 0.250000
v 1.060000 2.410000 0.250000
v 1.060000 2.190000 1.350000
v 1.240000 2.190000 1.350000
v 1.240000 2.410000 1.350000
v 1.060000 2.410000 1.350000
f 113/6/6 116/6/6 115/6/6 114/6/6
f 117/6/5 118/6/5 119/6/5 120/6/5
f 113/6/4 114/6/4 118/6/4 117/6/4
f 114/6/1 115/6/1 119/6/1 118/6/1
f 115/6/3 116/6/3 120/6/3 119/6/3
f 116/6/2 113/6/2 117/6/2 120/6/2

v 1.100000 2.250000 1.150000
v 1.200000 2.250000 1.150000
v 1.200000 2.350000 1.150000
v 1.100000 2.350000 1.150000
v 1.100000 2.250000 1.450000
v 1.200000 2.250000 1.450000
v 1.200000 2.350000 1.450000
v 1.100000 2.350000 1.450000
f 121/6/6 124/6/6 123/6/6 122/6/6
f 125/6/5 126/6/5 127/6/5 128/6/5
f 121/6/4 122/6/4 126/6/4 125/6/4
f 122/6/1 123/6/1 127/6/1 126/6/1
f 123/6/3 124/6/3 128/6/3 127/6/3
f 124/6/2 121/6/2 125/6/2 128/6/2

g $upperarm_l
v -1.350000 2.650000 -0.200000
v -0.950000 2.650000 -0.200000
v -0.950000 3.050000 -0.200000
v -1.350000 3.050000 -0.200000
v -1.350000 2.650000 0.200000
v -0.950000 2.650000 0.200000
v -0.950000 3.050000 0.200000
v -1.350000 3.050000 0.200000
f 129/3/6 132/3/6 131/3/6 130/3/6
f 133/3/5 134/3/5 135/3/5 136/3/5
f 129/3/4 130/3/4 134/3/4 133/3/4
f 130/3/1 131/3/1 135/3/1 134/3/1
f 131/3/3 132/3/3 136/3/3 135/3/3
f 132/3/2 129/3/2 133/3/2 136/3/2

v -1.330000 2.200000 -0.180000
v -0.970000 2.200000 -0.180000
v -0.970000 2.840000 -0.180000
v -1.330000 2.840000 -0.180000
v -1.330000 2.200000 0.180000
v -0.970000 2.200000 0.180000
v -0.970000 2.840000 0.180000
v -1.330000 2.840000 0.180000
f 137/1/6 140/1/6 139/1/6 138/1/6
f 141/1/5 142/1/5 143/1/5 144/1/5
f 137/1/4 138/1/4 142/1/4 141/1/4
f 138/1/1 139/1/1 143/1/1 142/1/1
f 139/1/3 140/1/3 144/1/3 143/1/3
f 140/1/2 137/1/2 141/1/2 144/1/2

g $forearm_l
v -1.320000 2.090000 -0.170000
v -0.980000 2.090000 -0.170000
v -0.980000 2.310000 -0.170000
v -1.320000 2.310000 -0.170000
v -1.320000 2.090000 0.170000
v -0.980000 2.090000 0.170000
v -0.980000 2.310000 0.170000
v -1.320000 2.310000 0.170000
f 145/3/6 148/3/6 147/3/6 146/3/6
f 149/3/5 150/3/5 151/3/5 152/3/5
f 145/3/4 146/3/4 150/3/4 149/3/4
f 146/3/1 147/3/1 151/3/1 150/3/1
f 147/3/3 148/3/3 152/3/3 151/3/3
f 148/3/2 145/3/2 149/3/2 152/3/2

v -1.320000 1.650000 -0.170000
v -0.980000 1.650000 -0.170000
v -0.980000 2.150000 -0.170000
v -1.320000 2.150000 -0.170000
v -1.320000 1.650000 0.170000
v -0.980000 1.650000 0.170000
v -0.980000 2.150000 0.170000
v -1.320000 2.150000 0.170000
f 153/1/6 156/1/6 155/1/6 154/1/6
f 157/1/5 158/1/5 159/1/5 160/1/5
f 153/1/4 154/1/4 158/1/4 157/1/4
f 154/1/1 155/1/1 159/1/1 158/1/1
f 155/1/3 156/1/3 160/1/3 159/1/3
f 156/1/2 153/1/2 157/1/2 160/1/2

v -1.300000 1.480000 -0.150000
v -1.000000 1.480000 -0.150000
v -1.000000 1.680000 -0.150000
v -1.300000 1.680000 -0.150000
v -1.300000 1.480000 0.150000
v -1.000000 1.480000 0.150000
v -1.000000 1.680000 0.150000
v -1.300000 1.680000 0.150000
f 161/3/6 164/3/6 163/3/6 162/3/6
f 165/3/5 166/3/5 167/3/5 168/3/5
f 161/3/4 162/3/4 166/3/4 165/3/4
f 162/3/1 163/3/1 167/3/1 166/3/1
f 163/3/3 164/3/3 168/3/3 167/3/3
f 164/3/2 161/3/2 165/3/2 168/3/2

g $shoulder_pod_l
v 0.675000 3.120000 -0.400000
v 1.225000 3.120000 -0.400000
v 1.225000 3.520000 -0.400000
v 0.675000 3.520000 -0.400000
v 0.675000 3.120000 0.500000
v 1.225000 3.120000 0.500000
v 1.225000 3.520000 0.500000
v 0.675000 3.520000 0.500000
f 169/7/6 172/7/6 171/7/6 170/7/6
f 173/7/5 174/7/5 175/7/5 176/7/5
f 169/7/4 170/7/4 174/7/4 173/7/4
f 170/7/1 171/7/1 175/7/1 174/7/1
f 171/7/3 172/7/3 176/7/3 175/7/3
f 172/7/2 169/7/2 173/7/2 176/7/2

v 0.725000 3.170000 0.490000
v 1.175000 3.170000 0.490000
v 1.175000 3.470000 0.490000
v 0.725000 3.470000 0.490000
v 0.725000 3.170000 0.530000
v 1.175000 3.170000 0.530000
v 1.175000 3.470000 0.530000
v 0.725000 3.470000 0.530000
f 177/4/6 180/4/6 179/4/6 178/4/6
f 181/4/5 182/4/5 183/4/5 184/4/5
f 177/4/4 178/4/4 182/4/4 181/4/4
f 178/4/1 179/4/1 183/4/1 182/4/1
f 179/4/3 180/4/3 184/4/3 183/4/3
f 180/4/2 177/4/2 181/4/2 184/4/2

v 0.760000 3.380000 0.510000
v 0.840000 3.380000 0.510000
v 0.840000 3.460000 0.510000
v 0.760000 3.460000 0.510000
v 0.760000 3.380000 0.530000
v 0.840000 3.380000 0.530000
v 0.840000 3.460000 0.530000
v 0.760000 3.460000 0.530000
f 185/3/6 188/3/6 187/3/6 186/3/6
f 189/3/5 190/3/5 191/3/5 192/3/5
f 185/3/4 186/3/4 190/3/4 189/3/4
f 186/3/1 187/3/1 191/3/1 190/3/1
f 187/3/3 188/3/3 192/3/3 191/3/3
f 188/3/2 185/3/2 189/3/2 192/3/2

v 0.910000 3.380000 0.510000
v 0.990000 3.380000 0.510000
v 0.990000 3.460000 0.510000
v 0.910000 3.460000 0.510000
v 0.910000 3.380000 0.530000
v 0.990000 3.380000 0.530000
v 0.990000 3.460000 0.530000
v 0.910000 3.460000 0.530000
f 193/3/6 196/3/6 195/3/6 194/3/6
f 197/3/5 198/3/5 199/3/5 200/3/5
f 193/3/4 194/3/4 198/3/4 197/3/4
f 194/3/1 195/3/1 199/3/1 198/3/1
f 195/3/3 196/3/3 200/3/3 199/3/3
f 196/3/2 193/3/2 197/3/2 200/3/2

v 1.060000 3.380000 0.510000
v 1.140000 3.380000 0.510000
v 1.140000 3.460000 0.510000
v 1.060000 3.460000 0.510000
v 1.060000 3.380000 0.530000
v 1.140000 3.380000 0.530000
v 1.140000 3.460000 0.530000
v 1.060000 3.460000 0.530000
f 201/3/6 204/3/6 203/3/6 202/3/6
f 205/3/5 206/3/5 207/3/5 208/3/5
f 201/3/4 202/3/4 206/3/4 205/3/4
f 202/3/1 203/3/1 207/3/1 206/3/1
f 203/3/3 204/3/3 208/3/3 207/3/3
f 204/3/2 201/3/2 205/3/2 208/3/2

g $shoulder_pod
v -1.200000 3.160000 -0.300000
v -0.700000 3.160000 -0.300000
v -0.700000 3.480000 -0.300000
v -1.200000 3.480000 -0.300000
v -1.200000 3.160000 0.500000
v -0.700000 3.160000 0.500000
v -0.700000 3.480000 0.500000
v -1.200000 3.480000 0.500000
f 209/7/6 212/7/6 211/7/6 210/7/6
f 213/7/5 214/7/5 215/7/5 216/7/5
f 209/7/4 210/7/4 214/7/4 213/7/4
f 210/7/1 211/7/1 215/7/1 214/7/1
f 211/7/3 212/7/3 216/7/3 215/7/3
f 212/7/2 209/7/2 213/7/2 216/7/2

v -1.160000 3.200000 0.490000
v -0.740000 3.200000 0.490000
v -0.740000 3.440000 0.490000
v -1.160000 3.440000 0.490000
v -1.160000 3.200000 0.550000
v -0.740000 3.200000 0.550000
v -0.740000 3.440000 0.550000
v -1.160000 3.440000 0.550000
f 217/3/6 220/3/6 219/3/6 218/3/6
f 221/3/5 222/3/5 223/3/5 224/3/5
f 217/3/4 218/3/4 222/3/4 221/3/4
f 218/3/1 219/3/1 223/3/1 222/3/1
f 219/3/3 220/3/3 224/3/3 223/3/3
f 220/3/2 217/3/2 221/3/2 224/3/2

v -1.010000 3.470000 -0.200000
v -0.890000 3.470000 -0.200000
v -0.890000 3.530000 -0.200000
v -1.010000 3.530000 -0.200000
v -1.010000 3.470000 0.400000
v -0.890000 3.470000 0.400000
v -0.890000 3.530000 0.400000
v -1.010000 3.530000 0.400000
f 225/4/6 228/4/6 227/4/6 226/4/6
f 229/4/5 230/4/5 231/4/5 232/4/5
f 225/4/4 226/4/4 230/4/4 229/4/4
f 226/4/1 227/4/1 231/4/1 230/4/1
f 227/4/3 228/4/3 232/4/3 231/4/3
f 228/4/2 225/4/2 229/4/2 232/4/2

g $thigh_r
v 0.250000 1.750000 -0.250000
v 0.750000 1.750000 -0.250000
v 0.750000 2.050000 -0.250000
v 0.250000 2.050000 -0.250000
v 0.250000 1.750000 0.250000
v 0.750000 1.750000 0.250000
v 0.750000 2.050000 0.250000
v 0.250000 2.050000 0.250000
f 233/3/6 236/3/6 235/3/6 234/3/6
f 237/3/5 238/3/5 239/3/5 240/3/5
f 233/3/4 234/3/4 238/3/4 237/3/4
f 234/3/1 235/3/1 239/3/1 238/3/1
f 235/3/3 236/3/3 240/3/3 239/3/3
f 236/3/2 233/3/2 237/3/2 240/3/2

v 0.280000 0.700000 -0.280000
v 0.720000 0.700000 -0.280000
v 0.720000 1.800000 -0.280000
v 0.280000 1.800000 -0.280000
v 0.280000 0.700000 0.280000
v 0.720000 0.700000 0.280000
v 0.720000 1.800000 0.280000
v 0.280000 1.800000 0.280000
f 241/1/6 244/1/6 243/1/6 242/1/6
f 245/1/5 246/1/5 247/1/5 248/1/5
f 241/1/4 242/1/4 246/1/4 245/1/4
f 242/1/1 243/1/1 247/1/1 246/1/1
f 243/1/3 244/1/3 248/1/3 247/1/3
f 244/1/2 241/1/2 245/1/2 248/1/2

g $shin_r
v 0.300000 0.560000 -0.180000
v 0.700000 0.560000 -0.180000
v 0.700000 0.800000 -0.180000
v 0.300000 0.800000 -0.180000
v 0.300000 0.560000 0.220000
v 0.700000 0.560000 0.220000
v 0.700000 0.800000 0.220000
v 0.300000 0.800000 0.220000
f 249/3/6 252/3/6 251/3/6 250/3/6
f 253/3/5 254/3/5 255/3/5 256/3/5
f 249/3/4 250/3/4 254/3/4 253/3/4
f 250/3/1 251/3/1 255/3/1 254/3/1
f 251/3/3 252/3/3 256/3/3 255/3/3
f 252/3/2 249/3/2 253/3/2 256/3/2

v 0.290000 0.170000 -0.250000
v 0.710000 0.170000 -0.250000
v 0.710000 0.670000 -0.250000
v 0.290000 0.670000 -0.250000
v 0.290000 0.170000 0.250000
v 0.710000 0.170000 0.250000
v 0.710000 0.670000 0.250000
v 0.290000 0.670000 0.250000
f 257/2/6 260/2/6 259/2/6 258/2/6
f 261/2/5 262/2/5 263/2/5 264/2/5
f 257/2/4 258/2/4 262/2/4 261/2/4
f 258/2/1 259/2/1 263/2/1 262/2/1
f 259/2/3 260/2/3 264/2/3 263/2/3
f 260/2/2 257/2/2 261/2/2 264/2/2

g $foot_r
v 0.240000 0.000000 -0.300000
v 0.760000 0.000000 -0.300000
v 0.760000 0.200000 -0.300000
v 0.240000 0.200000 -0.300000
v 0.240000 0.000000 0.600000
v 0.760000 0.000000 0.600000
v 0.760000 0.200000 0.600000
v 0.240000 0.200000 0.600000
f 265/8/6 268/8/6 267/8/6 266/8/6
f 269/8/5 270/8/5 271/8/5 272/8/5
f 265/8/4 266/8/4 270/8/4 269/8/4
f 266/8/1 267/8/1 271/8/1 270/8/1
f 267/8/3 268/8/3 272/8/3 271/8/3
f 268/8/2 265/8/2 269/8/2 272/8/2

g $thigh_l
v -0.750000 1.750000 -0.250000
v -0.250000 1.750000 -0.250000
v -0.250000 2.050000 -0.250000
v -0.750000 2.050000 -0.250000
v -0.750000 1.750000 0.250000
v -0.250000 1.750000 0.250000
v -0.250000 2.050000 0.250000
v -0.750000 2.050000 0.250000
f 273/3/6 276/3/6 275/3/6 274/3/6
f 277/3/5 278/3/5 279/3/5 280/3/5
f 273/3/4 274/3/4 278/3/4 277/3/4
f 274/3/1 275/3/1 279/3/1 278/3/1
f 275/3/3 276/3/3 280/3/3 279/3/3
f 276/3/2 273/3/2 277/3/2 280/3/2

v -0.720000 0.700000 -0.280000
v -0.280000 0.700000 -0.280000
v -0.280000 1.800000 -0.280000
v -0.720000 1.800000 -0.280000
v -0.720000 0.700000 0.280000
v -0.280000 0.700000 0.280000
v -0.280000 1.800000 0.280000
v -0.720000 1.800000 0.280000
f 281/1/6 284/1/6 283/1/6 282/1/6
f 285/1/5 286/1/5 287/1/5 288/1/5
f 281/1/4 282/1/4 286/1/4 285/1/4
f 282/1/1 283/1/1 287/1/1 286/1/1
f 283/1/3 284/1/3 288/1/3 287/1/3
f 284/1/2 281/1/2 285/1/2 288/1/2

g $shin_l
v -0.700000 0.560000 -0.180000
v -0.300000 0.560000 -0.180000
v -0.300000 0.800000 -0.180000
v -0.700000 0.800000 -0.180000
v -0.700000 0.560000 0.220000
v -0.300000 0.560000 0.220000
v -0.300000 0.800000 0.220000
v -0.700000 0.800000 0.220000
f 289/3/6 292/3/6 291/3/6 290/3/6
f 293/3/5 294/3/5 295/3/5 296/3/5
f 289/3/4 290/3/4 294/3/4 293/3/4
f 290/3/1 291/3/1 295/3/1 294/3/1
f 291/3/3 292/3/3 296/3/3 295/3/3
f 292/3/2 289/3/2 293/3/2 296/3/2

v -0.710000 0.170000 -0.250000
v -0.290000 0.170000 -0.250000
v -0.290000 0.670000 -0.250000
v -0.710000 0.670000 -0.250000
v -0.710000 0.170000 0.250000
v -0.290000 0.170000 0.250000
v -0.290000 0.670000 0.250000
v -0.710000 0.670000 0.250000
f 297/2/6 300/2/6 299/2/6 298/2/6
f 301/2/5 302/2/5 303/2/5 304/2/5
f 297/2/4 298/2/4 302/2/4 301/2/4
f 298/2/1 299/2/1 303/2/1 302/2/1
f 299/2/3 300/2/3 304/2/3 303/2/3
f 300/2/2 297/2/2 301/2/2 304/2/2

g $foot_l
v -0.760000 0.000000 -0.300000
v -0.240000 0.000000 -0.300000
v -0.240000 0.200000 -0.300000
v -0.760000 0.200000 -0.300000
v -0.760000 0.000000 0.600000
v -0.240000 0.000000 0.600000
v -0.240000 0.200000 0.600000
v -0.760000 0.200000 0.600000
f 305/8/6 308/8/6 307/8/6 306/8/6
f 309/8/5 310/8/5 311/8/5 312/8/5
f 305/8/4 306/8/4 310/8/4 309/8/4
f 306/8/1 307/8/1 311/8/1 310/8/1
f 307/8/3 308/8/3 312/8/3 311/8/3
f 308/8/2 305/8/2 309/8/2 312/8/2

g $booster_r
v 0.230000 2.050000 -0.730000
v 0.570000 2.050000 -0.730000
v 0.570000 3.050000 -0.730000
v 0.230000 3.050000 -0.730000
v 0.230000 2.050000 -0.430000
v 0.570000 2.050000 -0.430000
v 0.570000 3.050000 -0.430000
v 0.230000 3.050000 -0.430000
f 313/1/6 316/1/6 315/1/6 314/1/6
f 317/1/5 318/1/5 319/1/5 320/1/5
f 313/1/4 314/1/4 318/1/4 317/1/4
f 314/1/1 315/1/1 319/1/1 318/1/1
f 315/1/3 316/1/3 320/1/3 319/1/3
f 316/1/2 313/1/2 317/1/2 320/1/2

v 0.200000 2.960000 -0.750000
v 0.600000 2.960000 -0.750000
v 0.600000 3.080000 -0.750000
v 0.200000 3.080000 -0.750000
v 0.200000 2.960000 -0.410000
v 0.600000 2.960000 -0.410000
v 0.600000 3.080000 -0.410000
v 0.200000 3.080000 -0.410000
f 321/3/6 324/3/6 323/3/6 322/3/6
f 325/3/5 326/3/5 327/3/5 328/3/5
f 321/3/4 322/3/4 326/3/4 325/3/4
f 322/3/1 323/3/1 327/3/1 326/3/1
f 323/3/3 324/3/3 328/3/3 327/3/3
f 324/3/2 321/3/2 325/3/2 328/3/2

v 0.260000 1.910000 -0.700000
v 0.540000 1.910000 -0.700000
v 0.540000 2.050000 -0.700000
v 0.260000 2.050000 -0.700000
v 0.260000 1.910000 -0.460000
v 0.540000 1.910000 -0.460000
v 0.540000 2.050000 -0.460000
v 0.260000 2.050000 -0.460000
f 329/4/6 332/4/6 331/4/6 330/4/6
f 333/4/5 334/4/5 335/4/5 336/4/5
f 329/4/4 330/4/4 334/4/4 333/4/4
f 330/4/1 331/4/1 335/4/1 334/4/1
f 331/4/3 332/4/3 336/4/3 335/4/3
f 332/4/2 329/4/2 333/4/2 336/4/2

g $booster_l
v -0.570000 2.050000 -0.730000
v -0.230000 2.050000 -0.730000
v -0.230000 3.050000 -0.730000
v -0.570000 3.050000 -0.730000
v -0.570000 2.050000 -0.430000
v -0.230000 2.050000 -0.430000
v -0.230000 3.050000 -0.430000
v -0.570000 3.050000 -0.430000
f 337/1/6 340/1/6 339/1/6 338/1/6
f 341/1/5 342/1/5 343/1/5 344/1/5
f 337/1/4 338/1/4 342/1/4 341/1/4
f 338/1/1 339/1/1 343/1/1 342/1/1
f 339/1/3 340/1/3 344/1/3 343/1/3
f 340/1/2 337/1/2 341/1/2 344/1/2

v -0.600000 2.960000 -0.750000
v -0.200000 2.960000 -0.750000
v -0.200000 3.080000 -0.750000
v -0.600000 3.080000 -0.750000
v -0.600000 2.960000 -0.410000
v -0.200000 2.960000 -0.410000
v -0.200000 3.080000 -0.410000
v -0.600000 3.080000 -0.410000
f 345/3/6 348/3/6 347/3/6 346/3/6
f 349/3/5 350/3/5 351/3/5 352/3/5
f 345/3/4 346/3/4 350/3/4 349/3/4
f 346/3/1 347/3/1 351/3/1 350/3/1
f 347/3/3 348/3/3 352/3/3 351/3/3
f 348/3/2 345/3/2 349/3/2 352/3/2

v -0.540000 1.910000 -0.700000
v -0.260000 1.910000 -0.700000
v -0.260000 2.050000 -0.700000
v -0.540000 2.050000 -0.700000
v -0.540000 1.910000 -0.460000
v -0.260000 1.910000 -0.460000
v -0.260000 2.050000 -0.460000
v -0.540000 2.050000 -0.460000
f 353/4/6 356/4/6 355/4/6 354/4/6
f 357/4/5 358/4/5 359/4/5 360/4/5
f 353/4/4 354/4/4 358/4/4 357/4/4
f 354/4/1 355/4/1 359/4/1 358/4/1
f 355/4/3 356/4/3 360/4/3 359/4/3
f 356/4/2 353/4/2 357/4/2 360/4/2

g $fin
v -0.050000 2.750000 -0.450000
v 0.050000 2.750000 -0.450000
v 0.050000 3.250000 -0.450000
v -0.050000 3.250000 -0.450000
v -0.050000 2.750000 -0.150000
v 0.050000 2.750000 -0.150000
v 0.050000 3.250000 -0.150000
v -0.050000 3.250000 -0.150000
f 361/4/6 364/4/6 363/4/6 362/4/6
f 365/4/5 366/4/5 367/4/5 368/4/5
f 361/4/4 362/4/4 366/4/4 365/4/4
f 362/4/1 363/4/1 367/4/1 366/4/1
f 363/4/3 364/4/3 368/4/3 367/4/3
f 364/4/2 361/4/2 365/4/2 368/4/2

