# Tread Walker - humanoidrobotaddon sample (generated by tools/make_vehicles.py)

vt 0.031250 0.500000
vt 0.093750 0.500000
vt 0.156250 0.500000
vt 0.218750 0.500000
vt 0.281250 0.500000
vt 0.343750 0.500000
vt 0.406250 0.500000
vt 0.468750 0.500000
vn 1 0 0
vn -1 0 0
vn 0 1 0
vn 0 -1 0
vn 0 0 1
vn 0 0 -1

g body
v -0.650000 1.900000 -0.400000
v 0.650000 1.900000 -0.400000
v 0.650000 3.200000 -0.400000
v -0.650000 3.200000 -0.400000
v -0.650000 1.900000 0.400000
v 0.650000 1.900000 0.400000
v 0.650000 3.200000 0.400000
v -0.650000 3.200000 0.400000
f 1/1/6 4/1/6 3/1/6 2/1/6
f 5/1/5 6/1/5 7/1/5 8/1/5
f 1/1/4 2/1/4 6/1/4 5/1/4
f 2/1/1 3/1/1 7/1/1 6/1/1
f 3/1/3 4/1/3 8/1/3 7/1/3
f 4/1/2 1/1/2 5/1/2 8/1/2

v -0.450000 2.300000 0.390000
v 0.450000 2.300000 0.390000
v 0.450000 3.000000 0.390000
v -0.450000 3.000000 0.390000
v -0.450000 2.300000 0.430000
v 0.450000 2.300000 0.430000
v 0.450000 3.000000 0.430000
v -0.450000 3.000000 0.430000
f 9/2/6 12/2/6 11/2/6 10/2/6
f 13/2/5 14/2/5 15/2/5 16/2/5
f 9/2/4 10/2/4 14/2/4 13/2/4
f 10/2/1 11/2/1 15/2/1 14/2/1
f 11/2/3 12/2/3 16/2/3 15/2/3
f 12/2/2 9/2/2 13/2/2 16/2/2

g $head
v -0.300000 3.200000 -0.300000
v 0.300000 3.200000 -0.300000
v 0.300000 3.700000 -0.300000
v -0.300000 3.700000 -0.300000
v -0.300000 3.200000 0.300000
v 0.300000 3.200000 0.300000
v 0.300000 3.700000 0.300000
v -0.300000 3.700000 0.300000
f 17/1/6 20/1/6 19/1/6 18/1/6
f 21/1/5 22/1/5 23/1/5 24/1/5
f 17/1/4 18/1/4 22/1/4 21/1/4
f 18/1/1 19/1/1 23/1/1 22/1/1
f 19/1/3 20/1/3 24/1/3 23/1/3
f 20/1/2 17/1/2 21/1/2 24/1/2

v -0.225000 3.400000 0.290000
v 0.225000 3.400000 0.290000
v 0.225000 3.540000 0.290000
v -0.225000 3.540000 0.290000
v -0.225000 3.400000 0.330000
v 0.225000 3.400000 0.330000
v 0.225000 3.540000 0.330000
v -0.225000 3.540000 0.330000
f 25/5/6 28/5/6 27/5/6 26/5/6
f 29/5/5 30/5/5 31/5/5 32/5/5
f 25/5/4 26/5/4 30/5/4 29/5/4
f 26/5/1 27/5/1 31/5/1 30/5/1
f 27/5/3 28/5/3 32/5/3 31/5/3
f 28/5/2 25/5/2 29/5/2 32/5/2

g $arm_r
v 0.950000 2.650000 -0.200000
v 1.350000 2.650000 -0.200000
v 1.350000 3.050000 -0.200000
v 0.950000 3.050000 -0.200000
v 0.950000 2.650000 0.200000
v 1.350000 2.650000 0.200000
v 1.350000 3.050000 0.200000
v 0.950000 3.050000 0.200000
f 33/3/6 36/3/6 35/3/6 34/3/6
f 37/3/5 38/3/5 39/3/5 40/3/5
f 33/3/4 34/3/4 38/3/4 37/3/4
f 34/3/1 35/3/1 39/3/1 38/3/1
f 35/3/3 36/3/3 40/3/3 39/3/3
f 36/3/2 33/3/2 37/3/2 40/3/2

v 0.970000 2.200000 -0.180000
v 1.330000 2.200000 -0.180000
v 1.330000 2.800000 -0.180000
v 0.970000 2.800000 -0.180000
v 0.970000 2.200000 0.180000
v 1.330000 2.200000 0.180000
v 1.330000 2.800000 0.180000
v 0.970000 2.800000 0.180000
f 41/1/6 44/1/6 43/1/6 42/1/6
f 45/1/5 46/1/5 47/1/5 48/1/5
f 41/1/4 42/1/4 46/1/4 45/1/4
f 42/1/1 43/1/1 47/1/1 46/1/1
f 43/1/3 44/1/3 48/1/3 47/1/3
f 44/1/2 41/1/2 45/1/2 48/1/2

g $forearm_r
v 0.960000 2.150000 -0.190000
v 1.340000 2.150000 -0.190000
v 1.340000 2.450000 -0.190000
v 0.960000 2.450000 -0.190000
v 0.960000 2.150000 0.190000
v 1.340000 2.150000 0.190000
v 1.340000 2.450000 0.190000
v 0.960000 2.450000 0.190000
f 49/3/6 52/3/6 51/3/6 50/3/6
f 53/3/5 54/3/5 55/3/5 56/3/5
f 49/3/4 50/3/4 54/3/4 53/3/4
f 50/3/1 51/3/1 55/3/1 54/3/1
f 51/3/3 52/3/3 56/3/3 55/3/3
f 52/3/2 49/3/2 53/3/2 56/3/2

v 0.980000 2.130000 -0.100000
v 1.320000 2.130000 -0.100000
v 1.320000 2.470000 -0.100000
v 0.980000 2.470000 -0.100000
v 0.980000 2.130000 0.800000
v 1.320000 2.130000 0.800000
v 1.320000 2.470000 0.800000
v 0.980000 2.470000 0.800000
f 57/1/6 60/1/6 59/1/6 58/1/6
f 61/1/5 62/1/5 63/1/5 64/1/5
f 57/1/4 58/1/4 62/1/4 61/1/4
f 58/1/1 59/1/1 63/1/1 62/1/1
f 59/1/3 60/1/3 64/1/3 63/1/3
f 60/1/2 57/1/2 61/1/2 64/1/2

v 1.060000 2.190000 0.250000
v 1.240000 2.190000 0.250000
v 1.240000 2.410000 0.250000
v 1.060000 2.410000 0.250000
v 1.060000 2.190000 1.350000
v 1.240000 2.190000 1.350000
v 1.240000 2.410000 1.350000
v 1.060000 2.410000 1.350000
f 65/6/6 68/6/6 67/6/6 66/6/6
f 69/6/5 70/6/5 71/6/5 72/6/5
f 65/6/4 66/6/4 70/6/4 69/6/4
f 66/6/1 67/6/1 71/6/1 70/6/1
f 67/6/3 68/6/3 72/6/3 71/6/3
f 68/6/2 65/6/2 69/6/2 72/6/2

v 1.100000 2.250000 1.150000
v 1.200000 2.250000 1.150000
v 1.200000 2.350000 1.150000
v 1.100000 2.350000 1.150000
v 1.100000 2.250000 1.450000
v 1.200000 2.250000 1.450000
v 1.200000 2.350000 1.450000
v 1.100000 2.350000 1.450000
f 73/6/6 76/6/6 75/6/6 74/6/6
f 77/6/5 78/6/5 79/6/5 80/6/5
f 73/6/4 74/6/4 78/6/4 77/6/4
f 74/6/1 75/6/1 79/6/1 78/6/1
f 75/6/3 76/6/3 80/6/3 79/6/3
f 76/6/2 73/6/2 77/6/2 80/6/2

g $upperarm_l
v -1.350000 2.650000 -0.200000
v -0.950000 2.650000 -0.200000
v -0.950000 3.050000 -0.200000
v -1.350000 3.050000 -0.200000
v -1.350000 2.650000 0.200000
v -0.950000 2.650000 0.200000
v -0.950000 3.050000 0.200000
v -1.350000 3.050000 0.200000
f 81/3/6 84/3/6 83/3/6 82/3/6
f 85/3/5 86/3/5 87/3/5 88/3/5
f 81/3/4 82/3/4 86/3/4 85/3/4
f 82/3/1 83/3/1 87/3/1 86/3/1
f 83/3/3 84/3/3 88/3/3 87/3/3
f 84/3/2 81/3/2 85/3/2 88/3/2

v -1.330000 2.200000 -0.180000
v -0.970000 2.200000 -0.180000
v -0.970000 2.840000 -0.180000
v -1.330000 2.840000 -0.180000
v -1.330000 2.200000 0.180000
v -0.970000 2.200000 0.180000
v -0.970000 2.840000 0.180000
v -1.330000 2.840000 0.180000
f 89/1/6 92/1/6 91/1/6 90/1/6
f 93/1/5 94/1/5 95/1/5 96/1/5
f 89/1/4 90/1/4 94/1/4 93/1/4
f 90/1/1 91/1/1 95/1/1 94/1/1
f 91/1/3 92/1/3 96/1/3 95/1/3
f 92/1/2 89/1/2 93/1/2 96/1/2

g $forearm_l
v -1.320000 2.090000 -0.170000
v -0.980000 2.090000 -0.170000
v -0.980000 2.310000 -0.170000
v -1.320000 2.310000 -0.170000
v -1.320000 2.090000 0.170000
v -0.980000 2.090000 0.170000
v -0.980000 2.310000 0.170000
v -1.320000 2.310000 0.170000
f 97/3/6 100/3/6 99/3/6 98/3/6
f 101/3/5 102/3/5 103/3/5 104/3/5
f 97/3/4 98/3/4 102/3/4 101/3/4
f 98/3/1 99/3/1 103/3/1 102/3/1
f 99/3/3 100/3/3 104/3/3 103/3/3
f 100/3/2 97/3/2 101/3/2 104/3/2

v -1.320000 1.650000 -0.170000
v -0.980000 1.650000 -0.170000
v -0.980000 2.150000 -0.170000
v -1.320000 2.150000 -0.170000
v -1.320000 1.650000 0.170000
v -0.980000 1.650000 0.170000
v -0.980000 2.150000 0.170000
v -1.320000 2.150000 0.170000
f 105/1/6 108/1/6 107/1/6 106/1/6
f 109/1/5 110/1/5 111/1/5 112/1/5
f 105/1/4 106/1/4 110/1/4 109/1/4
f 106/1/1 107/1/1 111/1/1 110/1/1
f 107/1/3 108/1/3 112/1/3 111/1/3
f 108/1/2 105/1/2 109/1/2 112/1/2

v -1.300000 1.480000 -0.150000
v -1.000000 1.480000 -0.150000
v -1.000000 1.680000 -0.150000
v -1.300000 1.680000 -0.150000
v -1.300000 1.480000 0.150000
v -1.000000 1.480000 0.150000
v -1.000000 1.680000 0.150000
v -1.300000 1.680000 0.150000
f 113/3/6 116/3/6 115/3/6 114/3/6
f 117/3/5 118/3/5 119/3/5 120/3/5
f 113/3/4 114/3/4 118/3/4 117/3/4
f 114/3/1 115/3/1 119/3/1 118/3/1
f 115/3/3 116/3/3 120/3/3 119/3/3
f 116/3/2 113/3/2 117/3/2 120/3/2

g $shoulder_pod_l
v 0.675000 3.120000 -0.400000
v 1.225000 3.120000 -0.400000
v 1.225000 3.520000 -0.400000
v 0.675000 3.520000 -0.400000
v 0.675000 3.120000 0.500000
v 1.225000 3.120000 0.500000
v 1.225000 3.520000 0.500000
v 0.675000 3.520000 0.500000
f 121/7/6 124/7/6 123/7/6 122/7/6
f 125/7/5 126/7/5 127/7/5 128/7/5
f 121/7/4 122/7/4 126/7/4 125/7/4
f 122/7/1 123/7/1 127/7/1 126/7/1
f 123/7/3 124/7/3 128/7/3 127/7/3
f 124/7/2 121/7/2 125/7/2 128/7/2

v 0.725000 3.170000 0.490000
v 1.175000 3.170000 0.490000
v 1.175000 3.470000 0.490000
v 0.725000 3.470000 0.490000
v 0.725000 3.170000 0.530000
v 1.175000 3.170000 0.530000
v 1.175000 3.470000 0.530000
v 0.725000 3.470000 0.530000
f 129/4/6 132/4/6 131/4/6 130/4/6
f 133/4/5 134/4/5 135/4/5 136/4/5
f 129/4/4 130/4/4 134/4/4 133/4/4
f 130/4/1 131/4/1 135/4/1 134/4/1
f 131/4/3 132/4/3 136/4/3 135/4/3
f 132/4/2 129/4/2 133/4/2 136/4/2

v 0.760000 3.380000 0.510000
v 0.840000 3.380000 0.510000
v 0.840000 3.460000 0.510000
v 0.760000 3.460000 0.510000
v 0.760000 3.380000 0.530000
v 0.840000 3.380000 0.530000
v 0.840000 3.460000 0.530000
v 0.760000 3.460000 0.530000
f 137/3/6 140/3/6 139/3/6 138/3/6
f 141/3/5 142/3/5 143/3/5 144/3/5
f 137/3/4 138/3/4 142/3/4 141/3/4
f 138/3/1 139/3/1 143/3/1 142/3/1
f 139/3/3 140/3/3 144/3/3 143/3/3
f 140/3/2 137/3/2 141/3/2 144/3/2

v 0.910000 3.380000 0.510000
v 0.990000 3.380000 0.510000
v 0.990000 3.460000 0.510000
v 0.910000 3.460000 0.510000
v 0.910000 3.380000 0.530000
v 0.990000 3.380000 0.530000
v 0.990000 3.460000 0.530000
v 0.910000 3.460000 0.530000
f 145/3/6 148/3/6 147/3/6 146/3/6
f 149/3/5 150/3/5 151/3/5 152/3/5
f 145/3/4 146/3/4 150/3/4 149/3/4
f 146/3/1 147/3/1 151/3/1 150/3/1
f 147/3/3 148/3/3 152/3/3 151/3/3
f 148/3/2 145/3/2 149/3/2 152/3/2

v 1.060000 3.380000 0.510000
v 1.140000 3.380000 0.510000
v 1.140000 3.460000 0.510000
v 1.060000 3.460000 0.510000
v 1.060000 3.380000 0.530000
v 1.140000 3.380000 0.530000
v 1.140000 3.460000 0.530000
v 1.060000 3.460000 0.530000
f 153/3/6 156/3/6 155/3/6 154/3/6
f 157/3/5 158/3/5 159/3/5 160/3/5
f 153/3/4 154/3/4 158/3/4 157/3/4
f 154/3/1 155/3/1 159/3/1 158/3/1
f 155/3/3 156/3/3 160/3/3 159/3/3
f 156/3/2 153/3/2 157/3/2 160/3/2

g body
v -0.350000 1.600000 -0.250000
v 0.350000 1.600000 -0.250000
v 0.350000 2.000000 -0.250000
v -0.350000 2.000000 -0.250000
v -0.350000 1.600000 0.250000
v 0.350000 1.600000 0.250000
v 0.350000 2.000000 0.250000
v -0.350000 2.000000 0.250000
f 161/3/6 164/3/6 163/3/6 162/3/6
f 165/3/5 166/3/5 167/3/5 168/3/5
f 161/3/4 162/3/4 166/3/4 165/3/4
f 162/3/1 163/3/1 167/3/1 166/3/1
f 163/3/3 164/3/3 168/3/3 167/3/3
f 164/3/2 161/3/2 165/3/2 168/3/2

g $backpack_cannon
v -0.870000 3.050000 -0.600000
v -0.370000 3.050000 -0.600000
v -0.370000 3.550000 -0.600000
v -0.870000 3.550000 -0.600000
v -0.870000 3.050000 -0.100000
v -0.370000 3.050000 -0.100000
v -0.370000 3.550000 -0.100000
v -0.870000 3.550000 -0.100000
f 169/3/6 172/3/6 171/3/6 170/3/6
f 173/3/5 174/3/5 175/3/5 176/3/5
f 169/3/4 170/3/4 174/3/4 173/3/4
f 170/3/1 171/3/1 175/3/1 174/3/1
f 171/3/3 172/3/3 176/3/3 175/3/3
f 172/3/2 169/3/2 173/3/2 176/3/2

v -0.850000 3.220000 -0.450000
v -0.390000 3.220000 -0.450000
v -0.390000 3.680000 -0.450000
v -0.850000 3.680000 -0.450000
v -0.850000 3.220000 0.350000
v -0.390000 3.220000 0.350000
v -0.390000 3.680000 0.350000
v -0.850000 3.680000 0.350000
f 177/1/6 180/1/6 179/1/6 178/1/6
f 181/1/5 182/1/5 183/1/5 184/1/5
f 177/1/4 178/1/4 182/1/4 181/1/4
f 178/1/1 179/1/1 183/1/1 182/1/1
f 179/1/3 180/1/3 184/1/3 183/1/3
f 180/1/2 177/1/2 181/1/2 184/1/2

v -0.750000 3.320000 0.300000
v -0.490000 3.320000 0.300000
v -0.490000 3.580000 0.300000
v -0.750000 3.580000 0.300000
v -0.750000 3.320000 1.900000
v -0.490000 3.320000 1.900000
v -0.490000 3.580000 1.900000
v -0.750000 3.580000 1.900000
f 185/6/6 188/6/6 187/6/6 186/6/6
f 189/6/5 190/6/5 191/6/5 192/6/5
f 185/6/4 186/6/4 190/6/4 189/6/4
f 186/6/1 187/6/1 191/6/1 190/6/1
f 187/6/3 188/6/3 192/6/3 191/6/3
f 188/6/2 185/6/2 189/6/2 192/6/2

v -0.790000 3.280000 1.870000
v -0.450000 3.280000 1.870000
v -0.450000 3.620000 1.870000
v -0.790000 3.620000 1.870000
v -0.790000 3.280000 2.030000
v -0.450000 3.280000 2.030000
v -0.450000 3.620000 2.030000
v -0.790000 3.620000 2.030000
f 193/6/6 196/6/6 195/6/6 194/6/6
f 197/6/5 198/6/5 199/6/5 200/6/5
f 193/6/4 194/6/4 198/6/4 197/6/4
f 194/6/1 195/6/1 199/6/1 198/6/1
f 195/6/3 196/6/3 200/6/3 199/6/3
f 196/6/2 193/6/2 197/6/2 200/6/2

g $treads
v 0.500000 0.000000 -1.300000
v 1.000000 0.000000 -1.300000
v 1.000000 0.900000 -1.300000
v 0.500000 0.900000 -1.300000
v 0.500000 0.000000 1.300000
v 1.000000 0.000000 1.300000
v 1.000000 0.900000 1.300000
v 0.500000 0.900000 1.300000
f 201/3/6 204/3/6 203/3/6 202/3/6
f 205/3/5 206/3/5 207/3/5 208/3/5
f 201/3/4 202/3/4 206/3/4 205/3/4
f 202/3/1 203/3/1 207/3/1 206/3/1
f 203/3/3 204/3/3 208/3/3 207/3/3
f 204/3/2 201/3/2 205/3/2 208/3/2

v 0.520000 0.100000 1.240000
v 0.980000 0.100000 1.240000
v 0.980000 0.800000 1.240000
v 0.520000 0.800000 1.240000
v 0.520000 0.100000 1.360000
v 0.980000 0.100000 1.360000
v 0.980000 0.800000 1.360000
v 0.520000 0.800000 1.360000
f 209/8/6 212/8/6 211/8/6 210/8/6
f 213/8/5 214/8/5 215/8/5 216/8/5
f 209/8/4 210/8/4 214/8/4 213/8/4
f 210/8/1 211/8/1 215/8/1 214/8/1
f 211/8/3 212/8/3 216/8/3 215/8/3
f 212/8/2 209/8/2 213/8/2 216/8/2

v 0.520000 0.100000 -1.360000
v 0.980000 0.100000 -1.360000
v 0.980000 0.800000 -1.360000
v 0.520000 0.800000 -1.360000
v 0.520000 0.100000 -1.240000
v 0.980000 0.100000 -1.240000
v 0.980000 0.800000 -1.240000
v 0.520000 0.800000 -1.240000
f 217/8/6 220/8/6 219/8/6 218/8/6
f 221/8/5 222/8/5 223/8/5 224/8/5
f 217/8/4 218/8/4 222/8/4 221/8/4
f 218/8/1 219/8/1 223/8/1 222/8/1
f 219/8/3 220/8/3 224/8/3 223/8/3
f 220/8/2 217/8/2 221/8/2 224/8/2

v -1.000000 0.000000 -1.300000
v -0.500000 0.000000 -1.300000
v -0.500000 0.900000 -1.300000
v -1.000000 0.900000 -1.300000
v -1.000000 0.000000 1.300000
v -0.500000 0.000000 1.300000
v -0.500000 0.900000 1.300000
v -1.000000 0.900000 1.300000
f 225/3/6 228/3/6 227/3/6 226/3/6
f 229/3/5 230/3/5 231/3/5 232/3/5
f 225/3/4 226/3/4 230/3/4 229/3/4
f 226/3/1 227/3/1 231/3/1 230/3/1
f 227/3/3 228/3/3 232/3/3 231/3/3
f 228/3/2 225/3/2 229/3/2 232/3/2

v -0.980000 0.100000 1.240000
v -0.520000 0.100000 1.240000
v -0.520000 0.800000 1.240000
v -0.980000 0.800000 1.240000
v -0.980000 0.100000 1.360000
v -0.520000 0.100000 1.360000
v -0.520000 0.800000 1.360000
v -0.980000 0.800000 1.360000
f 233/8/6 236/8/6 235/8/6 234/8/6
f 237/8/5 238/8/5 239/8/5 240/8/5
f 233/8/4 234/8/4 238/8/4 237/8/4
f 234/8/1 235/8/1 239/8/1 238/8/1
f 235/8/3 236/8/3 240/8/3 239/8/3
f 236/8/2 233/8/2 237/8/2 240/8/2

v -0.980000 0.100000 -1.360000
v -0.520000 0.100000 -1.360000
v -0.520000 0.800000 -1.360000
v -0.980000 0.800000 -1.360000
v -0.980000 0.100000 -1.240000
v -0.520000 0.100000 -1.240000
v -0.520000 0.800000 -1.240000
v -0.980000 0.800000 -1.240000
f 241/8/6 244/8/6 243/8/6 242/8/6
f 245/8/5 246/8/5 247/8/5 248/8/5
f 241/8/4 242/8/4 246/8/4 245/8/4
f 242/8/1 243/8/1 247/8/1 246/8/1
f 243/8/3 244/8/3 248/8/3 247/8/3
f 244/8/2 241/8/2 245/8/2 248/8/2

v -0.550000 0.725000 -0.950000
v 0.550000 0.725000 -0.950000
v 0.550000 1.175000 -0.950000
v -0.550000 1.175000 -0.950000
v -0.550000 0.725000 0.950000
v 0.550000 0.725000 0.950000
v 0.550000 1.175000 0.950000
v -0.550000 1.175000 0.950000
f 249/1/6 252/1/6 251/1/6 250/1/6
f 253/1/5 254/1/5 255/1/5 256/1/5
f 249/1/4 250/1/4 254/1/4 253/1/4
f 250/1/1 251/1/1 255/1/1 254/1/1
f 251/1/3 252/1/3 256/1/3 255/1/3
f 252/1/2 249/1/2 253/1/2 256/1/2

v -0.350000 1.150000 -0.350000
v 0.350000 1.150000 -0.350000
v 0.350000 1.550000 -0.350000
v -0.350000 1.550000 -0.350000
v -0.350000 1.150000 0.350000
v 0.350000 1.150000 0.350000
v 0.350000 1.550000 0.350000
v -0.350000 1.550000 0.350000
f 257/2/6 260/2/6 259/2/6 258/2/6
f 261/2/5 262/2/5 263/2/5 264/2/5
f 257/2/4 258/2/4 262/2/4 261/2/4
f 258/2/1 259/2/1 263/2/1 262/2/1
f 259/2/3 260/2/3 264/2/3 263/2/3
f 260/2/2 257/2/2 261/2/2 264/2/2

g $roadwheel_r0
v 0.990000 0.118000 -1.082000
v 1.070000 0.118000 -1.082000
v 1.070000 0.482000 -1.082000
v 0.990000 0.482000 -1.082000
v 0.990000 0.118000 -0.718000
v 1.070000 0.118000 -0.718000
v 1.070000 0.482000 -0.718000
v 0.990000 0.482000 -0.718000
f 265/6/6 268/6/6 267/6/6 266/6/6
f 269/6/5 270/6/5 271/6/5 272/6/5
f 265/6/4 266/6/4 270/6/4 269/6/4
f 266/6/1 267/6/1 271/6/1 270/6/1
f 267/6/3 268/6/3 272/6/3 271/6/3
f 268/6/2 265/6/2 269/6/2 272/6/2

v 0.990800 0.040000 -1.017000
v 1.069200 0.040000 -1.017000
v 1.069200 0.560000 -1.017000
v 0.990800 0.560000 -1.017000
v 0.990800 0.040000 -0.783000
v 1.069200 0.040000 -0.783000
v 1.069200 0.560000 -0.783000
v 0.990800 0.560000 -0.783000
f 273/6/6 276/6/6 275/6/6 274/6/6
f 277/6/5 278/6/5 279/6/5 280/6/5
f 273/6/4 274/6/4 278/6/4 277/6/4
f 274/6/1 275/6/1 279/6/1 278/6/1
f 275/6/3 276/6/3 280/6/3 279/6/3
f 276/6/2 273/6/2 277/6/2 280/6/2

v 0.990800 0.183000 -1.160000
v 1.069200 0.183000 -1.160000
v 1.069200 0.417000 -1.160000
v 0.990800 0.417000 -1.160000
v 0.990800 0.183000 -0.640000
v 1.069200 0.183000 -0.640000
v 1.069200 0.417000 -0.640000
v 0.990800 0.417000 -0.640000
f 281/6/6 284/6/6 283/6/6 282/6/6
f 285/6/5 286/6/5 287/6/5 288/6/5
f 281/6/4 282/6/4 286/6/4 285/6/4
f 282/6/1 283/6/1 287/6/1 286/6/1
f 283/6/3 284/6/3 288/6/3 287/6/3
f 284/6/2 281/6/2 285/6/2 288/6/2

g $roadwheel_r1
v 0.990000 0.118000 -0.482000
v 1.070000 0.118000 -0.482000
v 1.070000 0.482000 -0.482000
v 0.990000 0.482000 -0.482000
v 0.990000 0.118000 -0.118000
v 1.070000 0.118000 -0.118000
v 1.070000 0.482000 -0.118000
v 0.990000 0.482000 -0.118000
f 289/6/6 292/6/6 291/6/6 290/6/6
f 293/6/5 294/6/5 295/6/5 296/6/5
f 289/6/4 290/6/4 294/6/4 293/6/4
f 290/6/1 291/6/1 295/6/1 294/6/1
f 291/6/3 292/6/3 296/6/3 295/6/3
f 292/6/2 289/6/2 293/6/2 296/6/2

v 0.990800 0.040000 -0.417000
v 1.069200 0.040000 -0.417000
v 1.069200 0.560000 -0.417000
v 0.990800 0.560000 -0.417000
v 0.990800 0.040000 -0.183000
v 1.069200 0.040000 -0.183000
v 1.069200 0.560000 -0.183000
v 0.990800 0.560000 -0.183000
f 297/6/6 300/6/6 299/6/6 298/6/6
f 301/6/5 302/6/5 303/6/5 304/6/5
f 297/6/4 298/6/4 302/6/4 301/6/4
f 298/6/1 299/6/1 303/6/1 302/6/1
f 299/6/3 300/6/3 304/6/3 303/6/3
f 300/6/2 297/6/2 301/6/2 304/6/2

v 0.990800 0.183000 -0.560000
v 1.069200 0.183000 -0.560000
v 1.069200 0.417000 -0.560000
v 0.990800 0.417000 -0.560000
v 0.990800 0.183000 -0.040000
v 1.069200 0.183000 -0.040000
v 1.069200 0.417000 -0.040000
v 0.990800 0.417000 -0.040000
f 305/6/6 308/6/6 307/6/6 306/6/6
f 309/6/5 310/6/5 311/6/5 312/6/5
f 305/6/4 306/6/4 310/6/4 309/6/4
f 306/6/1 307/6/1 311/6/1 310/6/1
f 307/6/3 308/6/3 312/6/3 311/6/3
f 308/6/2 305/6/2 309/6/2 312/6/2

g $roadwheel_r2
v 0.990000 0.118000 0.118000
v 1.070000 0.118000 0.118000
v 1.070000 0.482000 0.118000
v 0.990000 0.482000 0.118000
v 0.990000 0.118000 0.482000
v 1.070000 0.118000 0.482000
v 1.070000 0.482000 0.482000
v 0.990000 0.482000 0.482000
f 313/6/6 316/6/6 315/6/6 314/6/6
f 317/6/5 318/6/5 319/6/5 320/6/5
f 313/6/4 314/6/4 318/6/4 317/6/4
f 314/6/1 315/6/1 319/6/1 318/6/1
f 315/6/3 316/6/3 320/6/3 319/6/3
f 316/6/2 313/6/2 317/6/2 320/6/2

v 0.990800 0.040000 0.183000
v 1.069200 0.040000 0.183000
v 1.069200 0.560000 0.183000
v 0.990800 0.560000 0.183000
v 0.990800 0.040000 0.417000
v 1.069200 0.040000 0.417000
v 1.069200 0.560000 0.417000
v 0.990800 0.560000 0.417000
f 321/6/6 324/6/6 323/6/6 322/6/6
f 325/6/5 326/6/5 327/6/5 328/6/5
f 321/6/4 322/6/4 326/6/4 325/6/4
f 322/6/1 323/6/1 327/6/1 326/6/1
f 323/6/3 324/6/3 328/6/3 327/6/3
f 324/6/2 321/6/2 325/6/2 328/6/2

v 0.990800 0.183000 0.040000
v 1.069200 0.183000 0.040000
v 1.069200 0.417000 0.040000
v 0.990800 0.417000 0.040000
v 0.990800 0.183000 0.560000
v 1.069200 0.183000 0.560000
v 1.069200 0.417000 0.560000
v 0.990800 0.417000 0.560000
f 329/6/6 332/6/6 331/6/6 330/6/6
f 333/6/5 334/6/5 335/6/5 336/6/5
f 329/6/4 330/6/4 334/6/4 333/6/4
f 330/6/1 331/6/1 335/6/1 334/6/1
f 331/6/3 332/6/3 336/6/3 335/6/3
f 332/6/2 329/6/2 333/6/2 336/6/2

g $roadwheel_r3
v 0.990000 0.118000 0.718000
v 1.070000 0.118000 0.718000
v 1.070000 0.482000 0.718000
v 0.990000 0.482000 0.718000
v 0.990000 0.118000 1.082000
v 1.070000 0.118000 1.082000
v 1.070000 0.482000 1.082000
v 0.990000 0.482000 1.082000
f 337/6/6 340/6/6 339/6/6 338/6/6
f 341/6/5 342/6/5 343/6/5 344/6/5
f 337/6/4 338/6/4 342/6/4 341/6/4
f 338/6/1 339/6/1 343/6/1 342/6/1
f 339/6/3 340/6/3 344/6/3 343/6/3
f 340/6/2 337/6/2 341/6/2 344/6/2

v 0.990800 0.040000 0.783000
v 1.069200 0.040000 0.783000
v 1.069200 0.560000 0.783000
v 0.990800 0.560000 0.783000
v 0.990800 0.040000 1.017000
v 1.069200 0.040000 1.017000
v 1.069200 0.560000 1.017000
v 0.990800 0.560000 1.017000
f 345/6/6 348/6/6 347/6/6 346/6/6
f 349/6/5 350/6/5 351/6/5 352/6/5
f 345/6/4 346/6/4 350/6/4 349/6/4
f 346/6/1 347/6/1 351/6/1 350/6/1
f 347/6/3 348/6/3 352/6/3 351/6/3
f 348/6/2 345/6/2 349/6/2 352/6/2

v 0.990800 0.183000 0.640000
v 1.069200 0.183000 0.640000
v 1.069200 0.417000 0.640000
v 0.990800 0.417000 0.640000
v 0.990800 0.183000 1.160000
v 1.069200 0.183000 1.160000
v 1.069200 0.417000 1.160000
v 0.990800 0.417000 1.160000
f 353/6/6 356/6/6 355/6/6 354/6/6
f 357/6/5 358/6/5 359/6/5 360/6/5
f 353/6/4 354/6/4 358/6/4 357/6/4
f 354/6/1 355/6/1 359/6/1 358/6/1
f 355/6/3 356/6/3 360/6/3 359/6/3
f 356/6/2 353/6/2 357/6/2 360/6/2

g $roadwheel_l0
v -1.070000 0.118000 -1.082000
v -0.990000 0.118000 -1.082000
v -0.990000 0.482000 -1.082000
v -1.070000 0.482000 -1.082000
v -1.070000 0.118000 -0.718000
v -0.990000 0.118000 -0.718000
v -0.990000 0.482000 -0.718000
v -1.070000 0.482000 -0.718000
f 361/6/6 364/6/6 363/6/6 362/6/6
f 365/6/5 366/6/5 367/6/5 368/6/5
f 361/6/4 362/6/4 366/6/4 365/6/4
f 362/6/1 363/6/1 367/6/1 366/6/1
f 363/6/3 364/6/3 368/6/3 367/6/3
f 364/6/2 361/6/2 365/6/2 368/6/2

v -1.069200 0.040000 -1.017000
v -0.990800 0.040000 -1.017000
v -0.990800 0.560000 -1.017000
v -1.069200 0.560000 -1.017000
v -1.069200 0.040000 -0.783000
v -0.990800 0.040000 -0.783000
v -0.990800 0.560000 -0.783000
v -1.069200 0.560000 -0.783000
f 369/6/6 372/6/6 371/6/6 370/6/6
f 373/6/5 374/6/5 375/6/5 376/6/5
f 369/6/4 370/6/4 374/6/4 373/6/4
f 370/6/1 371/6/1 375/6/1 374/6/1
f 371/6/3 372/6/3 376/6/3 375/6/3
f 372/6/2 369/6/2 373/6/2 376/6/2

v -1.069200 0.183000 -1.160000
v -0.990800 0.183000 -1.160000
v -0.990800 0.417000 -1.160000
v -1.069200 0.417000 -1.160000
v -1.069200 0.183000 -0.640000
v -0.990800 0.183000 -0.640000
v -0.990800 0.417000 -0.640000
v -1.069200 0.417000 -0.640000
f 377/6/6 380/6/6 379/6/6 378/6/6
f 381/6/5 382/6/5 383/6/5 384/6/5
f 377/6/4 378/6/4 382/6/4 381/6/4
f 378/6/1 379/6/1 383/6/1 382/6/1
f 379/6/3 380/6/3 384/6/3 383/6/3
f 380/6/2 377/6/2 381/6/2 384/6/2

g $roadwheel_l1
v -1.070000 0.118000 -0.482000
v -0.990000 0.118000 -0.482000
v -0.990000 0.482000 -0.482000
v -1.070000 0.482000 -0.482000
v -1.070000 0.118000 -0.118000
v -0.990000 0.118000 -0.118000
v -0.990000 0.482000 -0.118000
v -1.070000 0.482000 -0.118000
f 385/6/6 388/6/6 387/6/6 386/6/6
f 389/6/5 390/6/5 391/6/5 392/6/5
f 385/6/4 386/6/4 390/6/4 389/6/4
f 386/6/1 387/6/1 391/6/1 390/6/1
f 387/6/3 388/6/3 392/6/3 391/6/3
f 388/6/2 385/6/2 389/6/2 392/6/2

v -1.069200 0.040000 -0.417000
v -0.990800 0.040000 -0.417000
v -0.990800 0.560000 -0.417000
v -1.069200 0.560000 -0.417000
v -1.069200 0.040000 -0.183000
v -0.990800 0.040000 -0.183000
v -0.990800 0.560000 -0.183000
v -1.069200 0.560000 -0.183000
f 393/6/6 396/6/6 395/6/6 394/6/6
f 397/6/5 398/6/5 399/6/5 400/6/5
f 393/6/4 394/6/4 398/6/4 397/6/4
f 394/6/1 395/6/1 399/6/1 398/6/1
f 395/6/3 396/6/3 400/6/3 399/6/3
f 396/6/2 393/6/2 397/6/2 400/6/2

v -1.069200 0.183000 -0.560000
v -0.990800 0.183000 -0.560000
v -0.990800 0.417000 -0.560000
v -1.069200 0.417000 -0.560000
v -1.069200 0.183000 -0.040000
v -0.990800 0.183000 -0.040000
v -0.990800 0.417000 -0.040000
v -1.069200 0.417000 -0.040000
f 401/6/6 404/6/6 403/6/6 402/6/6
f 405/6/5 406/6/5 407/6/5 408/6/5
f 401/6/4 402/6/4 406/6/4 405/6/4
f 402/6/1 403/6/1 407/6/1 406/6/1
f 403/6/3 404/6/3 408/6/3 407/6/3
f 404/6/2 401/6/2 405/6/2 408/6/2

g $roadwheel_l2
v -1.070000 0.118000 0.118000
v -0.990000 0.118000 0.118000
v -0.990000 0.482000 0.118000
v -1.070000 0.482000 0.118000
v -1.070000 0.118000 0.482000
v -0.990000 0.118000 0.482000
v -0.990000 0.482000 0.482000
v -1.070000 0.482000 0.482000
f 409/6/6 412/6/6 411/6/6 410/6/6
f 413/6/5 414/6/5 415/6/5 416/6/5
f 409/6/4 410/6/4 414/6/4 413/6/4
f 410/6/1 411/6/1 415/6/1 414/6/1
f 411/6/3 412/6/3 416/6/3 415/6/3
f 412/6/2 409/6/2 413/6/2 416/6/2

v -1.069200 0.040000 0.183000
v -0.990800 0.040000 0.183000
v -0.990800 0.560000 0.183000
v -1.069200 0.560000 0.183000
v -1.069200 0.040000 0.417000
v -0.990800 0.040000 0.417000
v -0.990800 0.560000 0.417000
v -1.069200 0.560000 0.417000
f 417/6/6 420/6/6 419/6/6 418/6/6
f 421/6/5 422/6/5 423/6/5 424/6/5
f 417/6/4 418/6/4 422/6/4 421/6/4
f 418/6/1 419/6/1 423/6/1 422/6/1
f 419/6/3 420/6/3 424/6/3 423/6/3
f 420/6/2 417/6/2 421/6/2 424/6/2

v -1.069200 0.183000 0.040000
v -0.990800 0.183000 0.040000
v -0.990800 0.417000 0.040000
v -1.069200 0.417000 0.040000
v -1.069200 0.183000 0.560000
v -0.990800 0.183000 0.560000
v -0.990800 0.417000 0.560000
v -1.069200 0.417000 0.560000
f 425/6/6 428/6/6 427/6/6 426/6/6
f 429/6/5 430/6/5 431/6/5 432/6/5
f 425/6/4 426/6/4 430/6/4 429/6/4
f 426/6/1 427/6/1 431/6/1 430/6/1
f 427/6/3 428/6/3 432/6/3 431/6/3
f 428/6/2 425/6/2 429/6/2 432/6/2

g $roadwheel_l3
v -1.070000 0.118000 0.718000
v -0.990000 0.118000 0.718000
v -0.990000 0.482000 0.718000
v -1.070000 0.482000 0.718000
v -1.070000 0.118000 1.082000
v -0.990000 0.118000 1.082000
v -0.990000 0.482000 1.082000
v -1.070000 0.482000 1.082000
f 433/6/6 436/6/6 435/6/6 434/6/6
f 437/6/5 438/6/5 439/6/5 440/6/5
f 433/6/4 434/6/4 438/6/4 437/6/4
f 434/6/1 435/6/1 439/6/1 438/6/1
f 435/6/3 436/6/3 440/6/3 439/6/3
f 436/6/2 433/6/2 437/6/2 440/6/2

v -1.069200 0.040000 0.783000
v -0.990800 0.040000 0.783000
v -0.990800 0.560000 0.783000
v -1.069200 0.560000 0.783000
v -1.069200 0.040000 1.017000
v -0.990800 0.040000 1.017000
v -0.990800 0.560000 1.017000
v -1.069200 0.560000 1.017000
f 441/6/6 444/6/6 443/6/6 442/6/6
f 445/6/5 446/6/5 447/6/5 448/6/5
f 441/6/4 442/6/4 446/6/4 445/6/4
f 442/6/1 443/6/1 447/6/1 446/6/1
f 443/6/3 444/6/3 448/6/3 447/6/3
f 444/6/2 441/6/2 445/6/2 448/6/2

v -1.069200 0.183000 0.640000
v -0.990800 0.183000 0.640000
v -0.990800 0.417000 0.640000
v -1.069200 0.417000 0.640000
v -1.069200 0.183000 1.160000
v -0.990800 0.183000 1.160000
v -0.990800 0.417000 1.160000
v -1.069200 0.417000 1.160000
f 449/6/6 452/6/6 451/6/6 450/6/6
f 453/6/5 454/6/5 455/6/5 456/6/5
f 449/6/4 450/6/4 454/6/4 453/6/4
f 450/6/1 451/6/1 455/6/1 454/6/1
f 451/6/3 452/6/3 456/6/3 455/6/3
f 452/6/2 449/6/2 453/6/2 456/6/2

