# Variable Fighter - humanoidrobotaddon sample (generated by tools/make_vehicles.py)

vt 0.031250 0.500000
vt 0.093750 0.500000
vt 0.156250 0.500000
vt 0.218750 0.500000
vt 0.281250 0.500000
vt 0.343750 0.500000
vt 0.406250 0.500000
vt 0.468750 0.500000
vn 1 0 0
vn -1 0 0
vn 0 1 0
vn 0 -1 0
vn 0 0 1
vn 0 0 -1

g body
v -0.650000 1.900000 -0.400000
v 0.650000 1.900000 -0.400000
v 0.650000 3.200000 -0.400000
v -0.650000 3.200000 -0.400000
v -0.650000 1.900000 0.400000
v 0.650000 1.900000 0.400000
v 0.650000 3.200000 0.400000
v -0.650000 3.200000 0.400000
f 1/1/6 4/1/6 3/1/6 2/1/6
f 5/1/5 6/1/5 7/1/5 8/1/5
f 1/1/4 2/1/4 6/1/4 5/1/4
f 2/1/1 3/1/1 7/1/1 6/1/1
f 3/1/3 4/1/3 8/1/3 7/1/3
f 4/1/2 1/1/2 5/1/2 8/1/2

v -0.450000 2.300000 0.390000
v 0.450000 2.300000 0.390000
v 0.450000 3.000000 0.390000
v -0.450000 3.000000 0.390000
v -0.450000 2.300000 0.430000
v 0.450000 2.300000 0.430000
v 0.450000 3.000000 0.430000
v -0.450000 3.000000 0.430000
f 9/2/6 12/2/6 11/2/6 10/2/6
f 13/2/5 14/2/5 15/2/5 16/2/5
f 9/2/4 10/2/4 14/2/4 13/2/4
f 10/2/1 11/2/1 15/2/1 14/2/1
f 11/2/3 12/2/3 16/2/3 15/2/3
f 12/2/2 9/2/2 13/2/2 16/2/2

g $head
v -0.300000 3.200000 -0.300000
v 0.300000 3.200000 -0.300000
v 0.300000 3.700000 -0.300000
v -0.300000 3.700000 -0.300000
v -0.300000 3.200000 0.300000
v 0.300000 3.200000 0.300000
v 0.300000 3.700000 0.300000
v -0.300000 3.700000 0.300000
f 17/1/6 20/1/6 19/1/6 18/1/6
f 21/1/5 22/1/5 23/1/5 24/1/5
f 17/1/4 18/1/4 22/1/4 21/1/4
f 18/1/1 19/1/1 23/1/1 22/1/1
f 19/1/3 20/1/3 24/1/3 23/1/3
f 20/1/2 17/1/2 21/1/2 24/1/2

v -0.225000 3.400000 0.290000
v 0.225000 3.400000 0.290000
v 0.225000 3.540000 0.290000
v -0.225000 3.540000 0.290000
v -0.225000 3.400000 0.330000
v 0.225000 3.400000 0.330000
v 0.225000 3.540000 0.330000
v -0.225000 3.540000 0.330000
f 25/5/6 28/5/6 27/5/6 26/5/6
f 29/5/5 30/5/5 31/5/5 32/5/5
f 25/5/4 26/5/4 30/5/4 29/5/4
f 26/5/1 27/5/1 31/5/1 30/5/1
f 27/5/3 28/5/3 32/5/3 31/5/3
f 28/5/2 25/5/2 29/5/2 32/5/2

g $arm_r
v 0.950000 2.650000 -0.200000
v 1.350000 2.650000 -0.200000
v 1.350000 3.050000 -0.200000
v 0.950000 3.050000 -0.200000
v 0.950000 2.650000 0.200000
v 1.350000 2.650000 0.200000
v 1.350000 3.050000 0.200000
v 0.950000 3.050000 0.200000
f 33/3/6 36/3/6 35/3/6 34/3/6
f 37/3/5 38/3/5 39/3/5 40/3/5
f 33/3/4 34/3/4 38/3/4 37/3/4
f 34/3/1 35/3/1 39/3/1 38/3/1
f 35/3/3 36/3/3 40/3/3 39/3/3
f 36/3/2 33/3/2 37/3/2 40/3/2

v 0.970000 2.200000 -0.180000
v 1.330000 2.200000 -0.180000
v 1.330000 2.800000 -0.180000
v 0.970000 2.800000 -0.180000
v 0.970000 2.200000 0.180000
v 1.330000 2.200000 0.180000
v 1.330000 2.800000 0.180000
v 0.970000 2.800000 0.180000
f 41/1/6 44/1/6 43/1/6 42/1/6
f 45/1/5 46/1/5 47/1/5 48/1/5
f 41/1/4 42/1/4 46/1/4 45/1/4
f 42/1/1 43/1/1 47/1/1 46/1/1
f 43/1/3 44/1/3 48/1/3 47/1/3
f 44/1/2 41/1/2 45/1/2 48/1/2

g $forearm_r
v 0.960000 2.150000 -0.190000
v 1.340000 2.150000 -0.190000
v 1.340000 2.450000 -0.190000
v 0.960000 2.450000 -0.190000
v 0.960000 2.150000 0.190000
v 1.340000 2.150000 0.190000
v 1.340000 2.450000 0.190000
v 0.960000 2.450000 0.190000
f 49/3/6 52/3/6 51/3/6 50/3/6
f 53/3/5 54/3/5 55/3/5 56/3/5
f 49/3/4 50/3/4 54/3/4 53/3/4
f 50/3/1 51/3/1 55/3/1 54/3/1
f 51/3/3 52/3/3 56/3/3 55/3/3
f 52/3/2 49/3/2 53/3/2 56/3/2

v 0.980000 2.130000 -0.100000
v 1.320000 2.130000 -0.100000
v 1.320000 2.470000 -0.100000
v 0.980000 2.470000 -0.100000
v 0.980000 2.130000 0.800000
v 1.320000 2.130000 0.800000
v 1.320000 2.470000 0.800000
v 0.980000 2.470000 0.800000
f 57/1/6 60/1/6 59/1/6 58/1/6
f 61/1/5 62/1/5 63/1/5 64/1/5
f 57/1/4 58/1/4 62/1/4 61/1/4
f 58/1/1 59/1/1 63/1/1 62/1/1
f 59/1/3 60/1/3 64/1/3 63/1/3
f 60/1/2 57/1/2 61/1/2 64/1/2

v 1.060000 2.190000 0.250000
v 1.240000 2.190000 0.250000
v 1.240000 2.410000 0.250000
v 1.060000 2.410000 0.250000
v 1.060000 2.190000 1.350000
v 1.240000 2.190000 1.350000
v 1.240000 2.410000 1.350000
v 1.060000 2.410000 1.350000
f 65/6/6 68/6/6 67/6/6 66/6/6
f 69/6/5 70/6/5 71/6/5 72/6/5
f 65/6/4 66/6/4 70/6/4 69/6/4
f 66/6/1 67/6/1 71/6/1 70/6/1
f 67/6/3 68/6/3 72/6/3 71/6/3
f 68/6/2 65/6/2 69/6/2 72/6/2

v 1.100000 2.250000 1.150000
v 1.200000 2.250000 1.150000
v 1.200000 2.350000 1.150000
v 1.100000 2.350000 1.150000
v 1.100000 2.250000 1.450000
v 1.200000 2.250000 1.450000
v 1.200000 2.350000 1.450000
v 1.100000 2.350000 1.450000
f 73/6/6 76/6/6 75/6/6 74/6/6
f 77/6/5 78/6/5 79/6/5 80/6/5
f 73/6/4 74/6/4 78/6/4 77/6/4
f 74/6/1 75/6/1 79/6/1 78/6/1
f 75/6/3 76/6/3 80/6/3 79/6/3
f 76/6/2 73/6/2 77/6/2 80/6/2

g $upperarm_l
v -1.350000 2.650000 -0.200000
v -0.950000 2.650000 -0.200000
v -0.950000 3.050000 -0.200000
v -1.350000 3.050000 -0.200000
v -1.350000 2.650000 0.200000
v -0.950000 2.650000 0.200000
v -0.950000 3.050000 0.200000
v -1.350000 3.050000 0.200000
f 81/3/6 84/3/6 83/3/6 82/3/6
f 85/3/5 86/3/5 87/3/5 88/3/5
f 81/3/4 82/3/4 86/3/4 85/3/4
f 82/3/1 83/3/1 87/3/1 86/3/1
f 83/3/3 84/3/3 88/3/3 87/3/3
f 84/3/2 81/3/2 85/3/2 88/3/2

v -1.330000 2.200000 -0.180000
v -0.970000 2.200000 -0.180000
v -0.970000 2.840000 -0.180000
v -1.330000 2.840000 -0.180000
v -1.330000 2.200000 0.180000
v -0.970000 2.200000 0.180000
v -0.970000 2.840000 0.180000
v -1.330000 2.840000 0.180000
f 89/1/6 92/1/6 91/1/6 90/1/6
f 93/1/5 94/1/5 95/1/5 96/1/5
f 89/1/4 90/1/4 94/1/4 93/1/4
f 90/1/1 91/1/1 95/1/1 94/1/1
f 91/1/3 92/1/3 96/1/3 95/1/3
f 92/1/2 89/1/2 93/1/2 96/1/2

g $forearm_l
v -1.320000 2.090000 -0.170000
v -0.980000 2.090000 -0.170000
v -0.980000 2.310000 -0.170000
v -1.320000 2.310000 -0.170000
v -1.320000 2.090000 0.170000
v -0.980000 2.090000 0.170000
v -0.980000 2.310000 0.170000
v -1.320000 2.310000 0.170000
f 97/3/6 100/3/6 99/3/6 98/3/6
f 101/3/5 102/3/5 103/3/5 104/3/5
f 97/3/4 98/3/4 102/3/4 101/3/4
f 98/3/1 99/3/1 103/3/1 102/3/1
f 99/3/3 100/3/3 104/3/3 103/3/3
f 100/3/2 97/3/2 101/3/2 104/3/2

v -1.320000 1.650000 -0.170000
v -0.980000 1.650000 -0.170000
v -0.980000 2.150000 -0.170000
v -1.320000 2.150000 -0.170000
v -1.320000 1.650000 0.170000
v -0.980000 1.650000 0.170000
v -0.980000 2.150000 0.170000
v -1.320000 2.150000 0.170000
f 105/1/6 108/1/6 107/1/6 106/1/6
f 109/1/5 110/1/5 111/1/5 112/1/5
f 105/1/4 106/1/4 110/1/4 109/1/4
f 106/1/1 107/1/1 111/1/1 110/1/1
f 107/1/3 108/1/3 112/1/3 111/1/3
f 108/1/2 105/1/2 109/1/2 112/1/2

v -1.300000 1.480000 -0.150000
v -1.000000 1.480000 -0.150000
v -1.000000 1.680000 -0.150000
v -1.300000 1.680000 -0.150000
v -1.300000 1.480000 0.150000
v -1.000000 1.480000 0.150000
v -1.000000 1.680000 0.150000
v -1.300000 1.680000 0.150000
f 113/3/6 116/3/6 115/3/6 114/3/6
f 117/3/5 118/3/5 119/3/5 120/3/5
f 113/3/4 114/3/4 118/3/4 117/3/4
f 114/3/1 115/3/1 119/3/1 118/3/1
f 115/3/3 116/3/3 120/3/3 119/3/3
f 116/3/2 113/3/2 117/3/2 120/3/2

g $shoulder_pod_l
v 0.675000 3.120000 -0.400000
v 1.225000 3.120000 -0.400000
v 1.225000 3.520000 -0.400000
v 0.675000 3.520000 -0.400000
v 0.675000 3.120000 0.500000
v 1.225000 3.120000 0.500000
v 1.225000 3.520000 0.500000
v 0.675000 3.520000 0.500000
f 121/7/6 124/7/6 123/7/6 122/7/6
f 125/7/5 126/7/5 127/7/5 128/7/5
f 121/7/4 122/7/4 126/7/4 125/7/4
f 122/7/1 123/7/1 127/7/1 126/7/1
f 123/7/3 124/7/3 128/7/3 127/7/3
f 124/7/2 121/7/2 125/7/2 128/7/2

v 0.725000 3.170000 0.490000
v 1.175000 3.170000 0.490000
v 1.175000 3.470000 0.490000
v 0.725000 3.470000 0.490000
v 0.725000 3.170000 0.530000
v 1.175000 3.170000 0.530000
v 1.175000 3.470000 0.530000
v 0.725000 3.470000 0.530000
f 129/4/6 132/4/6 131/4/6 130/4/6
f 133/4/5 134/4/5 135/4/5 136/4/5
f 129/4/4 130/4/4 134/4/4 133/4/4
f 130/4/1 131/4/1 135/4/1 134/4/1
f 131/4/3 132/4/3 136/4/3 135/4/3
f 132/4/2 129/4/2 133/4/2 136/4/2

v 0.760000 3.380000 0.510000
v 0.840000 3.380000 0.510000
v 0.840000 3.460000 0.510000
v 0.760000 3.460000 0.510000
v 0.760000 3.380000 0.530000
v 0.840000 3.380000 0.530000
v 0.840000 3.460000 0.530000
v 0.760000 3.460000 0.530000
f 137/3/6 140/3/6 139/3/6 138/3/6
f 141/3/5 142/3/5 143/3/5 144/3/5
f 137/3/4 138/3/4 142/3/4 141/3/4
f 138/3/1 139/3/1 143/3/1 142/3/1
f 139/3/3 140/3/3 144/3/3 143/3/3
f 140/3/2 137/3/2 141/3/2 144/3/2

v 0.910000 3.380000 0.510000
v 0.990000 3.380000 0.510000
v 0.990000 3.460000 0.510000
v 0.910000 3.460000 0.510000
v 0.910000 3.380000 0.530000
v 0.990000 3.380000 0.530000
v 0.990000 3.460000 0.530000
v 0.910000 3.460000 0.530000
f 145/3/6 148/3/6 147/3/6 146/3/6
f 149/3/5 150/3/5 151/3/5 152/3/5
f 145/3/4 146/3/4 150/3/4 149/3/4
f 146/3/1 147/3/1 151/3/1 150/3/1
f 147/3/3 148/3/3 152/3/3 151/3/3
f 148/3/2 145/3/2 149/3/2 152/3/2

v 1.060000 3.380000 0.510000
v 1.140000 3.380000 0.510000
v 1.140000 3.460000 0.510000
v 1.060000 3.460000 0.510000
v 1.060000 3.380000 0.530000
v 1.140000 3.380000 0.530000
v 1.140000 3.460000 0.530000
v 1.060000 3.460000 0.530000
f 153/3/6 156/3/6 155/3/6 154/3/6
f 157/3/5 158/3/5 159/3/5 160/3/5
f 153/3/4 154/3/4 158/3/4 157/3/4
f 154/3/1 155/3/1 159/3/1 158/3/1
f 155/3/3 156/3/3 160/3/3 159/3/3
f 156/3/2 153/3/2 157/3/2 160/3/2

g body
v -0.350000 1.600000 -0.250000
v 0.350000 1.600000 -0.250000
v 0.350000 2.000000 -0.250000
v -0.350000 2.000000 -0.250000
v -0.350000 1.600000 0.250000
v 0.350000 1.600000 0.250000
v 0.350000 2.000000 0.250000
v -0.350000 2.000000 0.250000
f 161/3/6 164/3/6 163/3/6 162/3/6
f 165/3/5 166/3/5 167/3/5 168/3/5
f 161/3/4 162/3/4 166/3/4 165/3/4
f 162/3/1 163/3/1 167/3/1 166/3/1
f 163/3/3 164/3/3 168/3/3 167/3/3
f 164/3/2 161/3/2 165/3/2 168/3/2

g $thigh_r
v 0.250000 1.750000 -0.250000
v 0.750000 1.750000 -0.250000
v 0.750000 2.050000 -0.250000
v 0.250000 2.050000 -0.250000
v 0.250000 1.750000 0.250000
v 0.750000 1.750000 0.250000
v 0.750000 2.050000 0.250000
v 0.250000 2.050000 0.250000
f 169/3/6 172/3/6 171/3/6 170/3/6
f 173/3/5 174/3/5 175/3/5 176/3/5
f 169/3/4 170/3/4 174/3/4 173/3/4
f 170/3/1 171/3/1 175/3/1 174/3/1
f 171/3/3 172/3/3 176/3/3 175/3/3
f 172/3/2 169/3/2 173/3/2 176/3/2

v 0.260000 0.700000 -0.300000
v 0.740000 0.700000 -0.300000
v 0.740000 1.800000 -0.300000
v 0.260000 1.800000 -0.300000
v 0.260000 0.700000 0.300000
v 0.740000 0.700000 0.300000
v 0.740000 1.800000 0.300000
v 0.260000 1.800000 0.300000
f 177/1/6 180/1/6 179/1/6 178/1/6
f 181/1/5 182/1/5 183/1/5 184/1/5
f 177/1/4 178/1/4 182/1/4 181/1/4
f 178/1/1 179/1/1 183/1/1 182/1/1
f 179/1/3 180/1/3 184/1/3 183/1/3
f 180/1/2 177/1/2 181/1/2 184/1/2

g $shin_r
v 0.280000 0.560000 -0.200000
v 0.720000 0.560000 -0.200000
v 0.720000 0.800000 -0.200000
v 0.280000 0.800000 -0.200000
v 0.280000 0.560000 0.240000
v 0.720000 0.560000 0.240000
v 0.720000 0.800000 0.240000
v 0.280000 0.800000 0.240000
f 185/3/6 188/3/6 187/3/6 186/3/6
f 189/3/5 190/3/5 191/3/5 192/3/5
f 185/3/4 186/3/4 190/3/4 189/3/4
f 186/3/1 187/3/1 191/3/1 190/3/1
f 187/3/3 188/3/3 192/3/3 191/3/3
f 188/3/2 185/3/2 189/3/2 192/3/2

v 0.270000 0.170000 -0.270000
v 0.730000 0.170000 -0.270000
v 0.730000 0.670000 -0.270000
v 0.270000 0.670000 -0.270000
v 0.270000 0.170000 0.270000
v 0.730000 0.170000 0.270000
v 0.730000 0.670000 0.270000
v 0.270000 0.670000 0.270000
f 193/2/6 196/2/6 195/2/6 194/2/6
f 197/2/5 198/2/5 199/2/5 200/2/5
f 193/2/4 194/2/4 198/2/4 197/2/4
f 194/2/1 195/2/1 199/2/1 198/2/1
f 195/2/3 196/2/3 200/2/3 199/2/3
f 196/2/2 193/2/2 197/2/2 200/2/2

v 0.475000 0.150000 -0.775000
v 0.525000 0.150000 -0.775000
v 0.525000 0.850000 -0.775000
v 0.475000 0.850000 -0.775000
v 0.475000 0.150000 -0.225000
v 0.525000 0.150000 -0.225000
v 0.525000 0.850000 -0.225000
v 0.475000 0.850000 -0.225000
f 201/4/6 204/4/6 203/4/6 202/4/6
f 205/4/5 206/4/5 207/4/5 208/4/5
f 201/4/4 202/4/4 206/4/4 205/4/4
f 202/4/1 203/4/1 207/4/1 206/4/1
f 203/4/3 204/4/3 208/4/3 207/4/3
f 204/4/2 201/4/2 205/4/2 208/4/2

g $foot_r
v 0.240000 0.000000 -0.300000
v 0.760000 0.000000 -0.300000
v 0.760000 0.200000 -0.300000
v 0.240000 0.200000 -0.300000
v 0.240000 0.000000 0.600000
v 0.760000 0.000000 0.600000
v 0.760000 0.200000 0.600000
v 0.240000 0.200000 0.600000
f 209/8/6 212/8/6 211/8/6 210/8/6
f 213/8/5 214/8/5 215/8/5 216/8/5
f 209/8/4 210/8/4 214/8/4 213/8/4
f 210/8/1 211/8/1 215/8/1 214/8/1
f 211/8/3 212/8/3 216/8/3 215/8/3
f 212/8/2 209/8/2 213/8/2 216/8/2

v 0.320000 -0.005000 -0.150000
v 0.680000 -0.005000 -0.150000
v 0.680000 0.045000 -0.150000
v 0.320000 0.045000 -0.150000
v 0.320000 -0.005000 0.450000
v 0.680000 -0.005000 0.450000
v 0.680000 0.045000 0.450000
v 0.320000 0.045000 0.450000
f 217/5/6 220/5/6 219/5/6 218/5/6
f 221/5/5 222/5/5 223/5/5 224/5/5
f 217/5/4 218/5/4 222/5/4 221/5/4
f 218/5/1 219/5/1 223/5/1 222/5/1
f 219/5/3 220/5/3 224/5/3 223/5/3
f 220/5/2 217/5/2 221/5/2 224/5/2

g $thigh_l
v -0.750000 1.750000 -0.250000
v -0.250000 1.750000 -0.250000
v -0.250000 2.050000 -0.250000
v -0.750000 2.050000 -0.250000
v -0.750000 1.750000 0.250000
v -0.250000 1.750000 0.250000
v -0.250000 2.050000 0.250000
v -0.750000 2.050000 0.250000
f 225/3/6 228/3/6 227/3/6 226/3/6
f 229/3/5 230/3/5 231/3/5 232/3/5
f 225/3/4 226/3/4 230/3/4 229/3/4
f 226/3/1 227/3/1 231/3/1 230/3/1
f 227/3/3 228/3/3 232/3/3 231/3/3
f 228/3/2 225/3/2 229/3/2 232/3/2

v -0.740000 0.700000 -0.300000
v -0.260000 0.700000 -0.300000
v -0.260000 1.800000 -0.300000
v -0.740000 1.800000 -0.300000
v -0.740000 0.700000 0.300000
v -0.260000 0.700000 0.300000
v -0.260000 1.800000 0.300000
v -0.740000 1.800000 0.300000
f 233/1/6 236/1/6 235/1/6 234/1/6
f 237/1/5 238/1/5 239/1/5 240/1/5
f 233/1/4 234/1/4 238/1/4 237/1/4
f 234/1/1 235/1/1 239/1/1 238/1/1
f 235/1/3 236/1/3 240/1/3 239/1/3
f 236/1/2 233/1/2 237/1/2 240/1/2

g $shin_l
v -0.720000 0.560000 -0.200000
v -0.280000 0.560000 -0.200000
v -0.280000 0.800000 -0.200000
v -0.720000 0.800000 -0.200000
v -0.720000 0.560000 0.240000
v -0.280000 0.560000 0.240000
v -0.280000 0.800000 0.240000
v -0.720000 0.800000 0.240000
f 241/3/6 244/3/6 243/3/6 242/3/6
f 245/3/5 246/3/5 247/3/5 248/3/5
f 241/3/4 242/3/4 246/3/4 245/3/4
f 242/3/1 243/3/1 247/3/1 246/3/1
f 243/3/3 244/3/3 248/3/3 247/3/3
f 244/3/2 241/3/2 245/3/2 248/3/2

v -0.730000 0.170000 -0.270000
v -0.270000 0.170000 -0.270000
v -0.270000 0.670000 -0.270000
v -0.730000 0.670000 -0.270000
v -0.730000 0.170000 0.270000
v -0.270000 0.170000 0.270000
v -0.270000 0.670000 0.270000
v -0.730000 0.670000 0.270000
f 249/2/6 252/2/6 251/2/6 250/2/6
f 253/2/5 254/2/5 255/2/5 256/2/5
f 249/2/4 250/2/4 254/2/4 253/2/4
f 250/2/1 251/2/1 255/2/1 254/2/1
f 251/2/3 252/2/3 256/2/3 255/2/3
f 252/2/2 249/2/2 253/2/2 256/2/2

v -0.525000 0.150000 -0.775000
v -0.475000 0.150000 -0.775000
v -0.475000 0.850000 -0.775000
v -0.525000 0.850000 -0.775000
v -0.525000 0.150000 -0.225000
v -0.475000 0.150000 -0.225000
v -0.475000 0.850000 -0.225000
v -0.525000 0.850000 -0.225000
f 257/4/6 260/4/6 259/4/6 258/4/6
f 261/4/5 262/4/5 263/4/5 264/4/5
f 257/4/4 258/4/4 262/4/4 261/4/4
f 258/4/1 259/4/1 263/4/1 262/4/1
f 259/4/3 260/4/3 264/4/3 263/4/3
f 260/4/2 257/4/2 261/4/2 264/4/2

g $foot_l
v -0.760000 0.000000 -0.300000
v -0.240000 0.000000 -0.300000
v -0.240000 0.200000 -0.300000
v -0.760000 0.200000 -0.300000
v -0.760000 0.000000 0.600000
v -0.240000 0.000000 0.600000
v -0.240000 0.200000 0.600000
v -0.760000 0.200000 0.600000
f 265/8/6 268/8/6 267/8/6 266/8/6
f 269/8/5 270/8/5 271/8/5 272/8/5
f 265/8/4 266/8/4 270/8/4 269/8/4
f 266/8/1 267/8/1 271/8/1 270/8/1
f 267/8/3 268/8/3 272/8/3 271/8/3
f 268/8/2 265/8/2 269/8/2 272/8/2

v -0.680000 -0.005000 -0.150000
v -0.320000 -0.005000 -0.150000
v -0.320000 0.045000 -0.150000
v -0.680000 0.045000 -0.150000
v -0.680000 -0.005000 0.450000
v -0.320000 -0.005000 0.450000
v -0.320000 0.045000 0.450000
v -0.680000 0.045000 0.450000
f 273/5/6 276/5/6 275/5/6 274/5/6
f 277/5/5 278/5/5 279/5/5 280/5/5
f 273/5/4 274/5/4 278/5/4 277/5/4
f 274/5/1 275/5/1 279/5/1 278/5/1
f 275/5/3 276/5/3 280/5/3 279/5/3
f 276/5/2 273/5/2 277/5/2 280/5/2

g $nose
v -0.250000 2.400000 -0.845000
v 0.250000 2.400000 -0.845000
v 0.250000 3.900000 -0.845000
v -0.250000 3.900000 -0.845000
v -0.250000 2.400000 -0.395000
v 0.250000 2.400000 -0.395000
v 0.250000 3.900000 -0.395000
v -0.250000 3.900000 -0.395000
f 281/1/6 284/1/6 283/1/6 282/1/6
f 285/1/5 286/1/5 287/1/5 288/1/5
f 281/1/4 282/1/4 286/1/4 285/1/4
f 282/1/1 283/1/1 287/1/1 286/1/1
f 283/1/3 284/1/3 288/1/3 287/1/3
f 284/1/2 281/1/2 285/1/2 288/1/2

v -0.150000 3.850000 -0.770000
v 0.150000 3.850000 -0.770000
v 0.150000 4.150000 -0.770000
v -0.150000 4.150000 -0.770000
v -0.150000 3.850000 -0.470000
v 0.150000 3.850000 -0.470000
v 0.150000 4.150000 -0.470000
v -0.150000 4.150000 -0.470000
f 289/1/6 292/1/6 291/1/6 290/1/6
f 293/1/5 294/1/5 295/1/5 296/1/5
f 289/1/4 290/1/4 294/1/4 293/1/4
f 290/1/1 291/1/1 295/1/1 294/1/1
f 291/1/3 292/1/3 296/1/3 295/1/3
f 292/1/2 289/1/2 293/1/2 296/1/2

v -0.150000 3.050000 -0.885000
v 0.150000 3.050000 -0.885000
v 0.150000 3.750000 -0.885000
v -0.150000 3.750000 -0.885000
v -0.150000 3.050000 -0.835000
v 0.150000 3.050000 -0.835000
v 0.150000 3.750000 -0.835000
v -0.150000 3.750000 -0.835000
f 297/5/6 300/5/6 299/5/6 298/5/6
f 301/5/5 302/5/5 303/5/5 304/5/5
f 297/5/4 298/5/4 302/5/4 301/5/4
f 298/5/1 299/5/1 303/5/1 302/5/1
f 299/5/3 300/5/3 304/5/3 303/5/3
f 300/5/2 297/5/2 301/5/2 304/5/2

g $wing_l
v -0.100000 1.200000 -0.525000
v 0.800000 1.200000 -0.525000
v 0.800000 2.900000 -0.525000
v -0.100000 2.900000 -0.525000
v -0.100000 1.200000 -0.475000
v 0.800000 1.200000 -0.475000
v 0.800000 2.900000 -0.475000
v -0.100000 2.900000 -0.475000
f 305/2/6 308/2/6 307/2/6 306/2/6
f 309/2/5 310/2/5 311/2/5 312/2/5
f 305/2/4 306/2/4 310/2/4 309/2/4
f 306/2/1 307/2/1 311/2/1 310/2/1
f 307/2/3 308/2/3 312/2/3 311/2/3
f 308/2/2 305/2/2 309/2/2 312/2/2

v 0.050000 1.130000 -0.530000
v 0.650000 1.130000 -0.530000
v 0.650000 1.230000 -0.530000
v 0.050000 1.230000 -0.530000
v 0.050000 1.130000 -0.470000
v 0.650000 1.130000 -0.470000
v 0.650000 1.230000 -0.470000
v 0.050000 1.230000 -0.470000
f 313/4/6 316/4/6 315/4/6 314/4/6
f 317/4/5 318/4/5 319/4/5 320/4/5
f 313/4/4 314/4/4 318/4/4 317/4/4
f 314/4/1 315/4/1 319/4/1 318/4/1
f 315/4/3 316/4/3 320/4/3 319/4/3
f 316/4/2 313/4/2 317/4/2 320/4/2

v 0.270000 2.820000 -0.560000
v 0.430000 2.820000 -0.560000
v 0.430000 2.980000 -0.560000
v 0.270000 2.980000 -0.560000
v 0.270000 2.820000 -0.440000
v 0.430000 2.820000 -0.440000
v 0.430000 2.980000 -0.440000
v 0.270000 2.980000 -0.440000
f 321/3/6 324/3/6 323/3/6 322/3/6
f 325/3/5 326/3/5 327/3/5 328/3/5
f 321/3/4 322/3/4 326/3/4 325/3/4
f 322/3/1 323/3/1 327/3/1 326/3/1
f 323/3/3 324/3/3 328/3/3 327/3/3
f 324/3/2 321/3/2 325/3/2 328/3/2

g $wing_r
v -0.800000 1.200000 -0.525000
v 0.100000 1.200000 -0.525000
v 0.100000 2.900000 -0.525000
v -0.800000 2.900000 -0.525000
v -0.800000 1.200000 -0.475000
v 0.100000 1.200000 -0.475000
v 0.100000 2.900000 -0.475000
v -0.800000 2.900000 -0.475000
f 329/2/6 332/2/6 331/2/6 330/2/6
f 333/2/5 334/2/5 335/2/5 336/2/5
f 329/2/4 330/2/4 334/2/4 333/2/4
f 330/2/1 331/2/1 335/2/1 334/2/1
f 331/2/3 332/2/3 336/2/3 335/2/3
f 332/2/2 329/2/2 333/2/2 336/2/2

v -0.650000 1.130000 -0.530000
v -0.050000 1.130000 -0.530000
v -0.050000 1.230000 -0.530000
v -0.650000 1.230000 -0.530000
v -0.650000 1.130000 -0.470000
v -0.050000 1.130000 -0.470000
v -0.050000 1.230000 -0.470000
v -0.650000 1.230000 -0.470000
f 337/4/6 340/4/6 339/4/6 338/4/6
f 341/4/5 342/4/5 343/4/5 344/4/5
f 337/4/4 338/4/4 342/4/4 341/4/4
f 338/4/1 339/4/1 343/4/1 342/4/1
f 339/4/3 340/4/3 344/4/3 343/4/3
f 340/4/2 337/4/2 341/4/2 344/4/2

v -0.430000 2.820000 -0.560000
v -0.270000 2.820000 -0.560000
v -0.270000 2.980000 -0.560000
v -0.430000 2.980000 -0.560000
v -0.430000 2.820000 -0.440000
v -0.270000 2.820000 -0.440000
v -0.270000 2.980000 -0.440000
v -0.430000 2.980000 -0.440000
f 345/3/6 348/3/6 347/3/6 346/3/6
f 349/3/5 350/3/5 351/3/5 352/3/5
f 345/3/4 346/3/4 350/3/4 349/3/4
f 346/3/1 347/3/1 351/3/1 350/3/1
f 347/3/3 348/3/3 352/3/3 351/3/3
f 348/3/2 345/3/2 349/3/2 352/3/2

g $gear_nose
v -0.050000 2.950000 0.420000
v 0.050000 2.950000 0.420000
v 0.050000 3.050000 0.420000
v -0.050000 3.050000 0.420000
v -0.050000 2.950000 1.420000
v 0.050000 2.950000 1.420000
v 0.050000 3.050000 1.420000
v -0.050000 3.050000 1.420000
f 353/3/6 356/3/6 355/3/6 354/3/6
f 357/3/5 358/3/5 359/3/5 360/3/5
f 353/3/4 354/3/4 358/3/4 357/3/4
f 354/3/1 355/3/1 359/3/1 358/3/1
f 355/3/3 356/3/3 360/3/3 359/3/3
f 356/3/2 353/3/2 357/3/2 360/3/2

v -0.060000 2.875000 1.295000
v 0.060000 2.875000 1.295000
v 0.060000 3.125000 1.295000
v -0.060000 3.125000 1.295000
v -0.060000 2.875000 1.545000
v 0.060000 2.875000 1.545000
v 0.060000 3.125000 1.545000
v -0.060000 3.125000 1.545000
f 361/8/6 364/8/6 363/8/6 362/8/6
f 365/8/5 366/8/5 367/8/5 368/8/5
f 361/8/4 362/8/4 366/8/4 365/8/4
f 362/8/1 363/8/1 367/8/1 366/8/1
f 363/8/3 364/8/3 368/8/3 367/8/3
f 364/8/2 361/8/2 365/8/2 368/8/2

g $gear_l
v 0.390000 1.890000 0.350000
v 0.510000 1.890000 0.350000
v 0.510000 2.010000 0.350000
v 0.390000 2.010000 0.350000
v 0.390000 1.890000 1.350000
v 0.510000 1.890000 1.350000
v 0.510000 2.010000 1.350000
v 0.390000 2.010000 1.350000
f 369/3/6 372/3/6 371/3/6 370/3/6
f 373/3/5 374/3/5 375/3/5 376/3/5
f 369/3/4 370/3/4 374/3/4 373/3/4
f 370/3/1 371/3/1 375/3/1 374/3/1
f 371/3/3 372/3/3 376/3/3 375/3/3
f 372/3/2 369/3/2 373/3/2 376/3/2

v 0.380000 1.800000 1.200000
v 0.520000 1.800000 1.200000
v 0.520000 2.100000 1.200000
v 0.380000 2.100000 1.200000
v 0.380000 1.800000 1.500000
v 0.520000 1.800000 1.500000
v 0.520000 2.100000 1.500000
v 0.380000 2.100000 1.500000
f 377/8/6 380/8/6 379/8/6 378/8/6
f 381/8/5 382/8/5 383/8/5 384/8/5
f 377/8/4 378/8/4 382/8/4 381/8/4
f 378/8/1 379/8/1 383/8/1 382/8/1
f 379/8/3 380/8/3 384/8/3 383/8/3
f 380/8/2 377/8/2 381/8/2 384/8/2

g $gear_r
v -0.510000 1.890000 0.350000
v -0.390000 1.890000 0.350000
v -0.390000 2.010000 0.350000
v -0.510000 2.010000 0.350000
v -0.510000 1.890000 1.350000
v -0.390000 1.890000 1.350000
v -0.390000 2.010000 1.350000
v -0.510000 2.010000 1.350000
f 385/3/6 388/3/6 387/3/6 386/3/6
f 389/3/5 390/3/5 391/3/5 392/3/5
f 385/3/4 386/3/4 390/3/4 389/3/4
f 386/3/1 387/3/1 391/3/1 390/3/1
f 387/3/3 388/3/3 392/3/3 391/3/3
f 388/3/2 385/3/2 389/3/2 392/3/2

v -0.520000 1.800000 1.200000
v -0.380000 1.800000 1.200000
v -0.380000 2.100000 1.200000
v -0.520000 2.100000 1.200000
v -0.520000 1.800000 1.500000
v -0.380000 1.800000 1.500000
v -0.380000 2.100000 1.500000
v -0.520000 2.100000 1.500000
f 393/8/6 396/8/6 395/8/6 394/8/6
f 397/8/5 398/8/5 399/8/5 400/8/5
f 393/8/4 394/8/4 398/8/4 397/8/4
f 394/8/1 395/8/1 399/8/1 398/8/1
f 395/8/3 396/8/3 400/8/3 399/8/3
f 396/8/2 393/8/2 397/8/2 400/8/2

